<!DOCTYPE svg PUBLIC "-//W3C//DTD SVG 20010904//EN" "http://www.w3.org/TR/2001/REC-SVG-20010904/DTD/svg10.dtd">
<svg version="1.0" xmlns="http://www.w3.org/2000/svg" width="804px" height="510px" viewBox="0 0 8040 5100" preserveAspectRatio="xMidYMid meet">
<g id="layer101" fill="#000000" stroke="none">
<path d="M97 5069 c-9 -17 -15 -35 -11 -40 3 -5 0 -9 -6 -9 -5 0 -26 -10 -45 -22 -32 -21 -35 -27 -35 -76 0 -29 4 -60 10 -70 5 -9 34 -129 64 -267 55 -253 139 -631 267 -1205 39 -173 77 -342 84 -375 41 -189 168 -762 184 -830 11 -44 121 -541 247 -1105 130 -587 234 -1034 243 -1047 l16 -22 3401 -1 c2631 0 3403 3 3412 12 7 7 12 20 12 30 0 10 5 18 10 18 6 0 10 7 10 16 0 8 14 20 30 25 22 8 30 17 30 35 0 13 5 24 10 24 14 0 12 33 -4 88 -8 26 -42 173 -76 327 -114 520 -178 809 -225 1015 -25 113 -57 255 -70 315 -13 61 -58 263 -100 450 -42 187 -80 358 -84 380 -12 56 -137 619 -166 745 -61 262 -327 1471 -336 1523 -5 32 -15 67 -22 78 -12 19 -61 19 -3422 19 l-3410 0 -18 -31z"/>
</g>
<g id="layer102" fill="#1e1917" stroke="none">
<path d="M97 5069 c-9 -17 -15 -35 -11 -40 3 -5 0 -9 -6 -9 -5 0 -26 -10 -45 -22 -32 -21 -35 -27 -35 -76 0 -29 4 -60 10 -70 5 -9 34 -129 64 -267 54 -249 133 -604 267 -1205 39 -173 79 -351 88 -395 68 -310 86 -383 92 -379 4 2 11 -1 15 -7 4 -8 3 -9 -4 -5 -17 10 -17 9 33 -221 234 -1069 523 -2338 533 -2336 7 2 11 0 11 -5 -1 -4 -1 -13 0 -19 2 -20 6804 -19 6820 1 7 8 10 26 7 40 -3 14 0 28 5 31 5 4 9 -2 10 -12 0 -15 2 -15 9 3 5 12 20 24 34 28 19 5 26 13 26 31 0 14 5 25 10 25 14 0 12 33 -4 88 -8 26 -42 173 -76 327 -114 520 -178 809 -225 1015 -25 113 -57 255 -70 315 -13 61 -58 263 -100 450 -42 187 -80 358 -84 380 -12 56 -137 619 -166 745 -61 262 -327 1471 -336 1523 -5 32 -15 67 -22 78 -12 19 -61 19 -3422 19 l-3410 0 -18 -31z m130 -596 c-4 -3 -7 0 -7 7 0 7 3 10 7 7 3 -4 3 -10 0 -14z m40 -180 c-4 -3 -7 0 -7 7 0 7 3 10 7 7 3 -4 3 -10 0 -14z m280 -1260 c-4 -3 -7 0 -7 7 0 7 3 10 7 7 3 -4 3 -10 0 -14z m20 -100 c-4 -3 -7 0 -7 7 0 7 3 10 7 7 3 -4 3 -10 0 -14z m20 -80 c-4 -3 -7 0 -7 7 0 7 3 10 7 7 3 -4 3 -10 0 -14z m40 -190 c-4 -3 -7 0 -7 7 0 7 3 10 7 7 3 -4 3 -10 0 -14z m240 -1070 c-4 -3 -7 0 -7 7 0 7 3 10 7 7 3 -4 3 -10 0 -14z m40 -180 c-4 -3 -7 0 -7 7 0 7 3 10 7 7 3 -4 3 -10 0 -14z m160 -710 c-4 -3 -7 0 -7 7 0 7 3 10 7 7 3 -4 3 -10 0 -14z m6860 -680 c-4 -3 -7 0 -7 7 0 7 3 10 7 7 3 -4 3 -10 0 -14z"/>
</g>
<g id="layer103" fill="#2a2624" stroke="none">
<path d="M0 4907 c0 -24 4 -47 8 -52 5 -6 40 -151 78 -324 37 -172 70 -309 72 -303 2 6 -29 155 -68 332 -51 230 -69 330 -64 355 5 28 3 35 -10 35 -12 0 -16 -10 -16 -43z"/>
<path d="M155 4848 c63 -276 193 -883 190 -888 -3 -5 -2 -10 3 -12 6 -2 218 -936 226 -1001 2 -12 6 -29 9 -37 5 -13 36 -150 52 -230 25 -129 565 -2531 570 -2539 4 -8 970 -11 3301 -11 2811 0 3294 2 3294 14 0 8 -79 369 -176 802 -96 434 -182 818 -189 854 -15 67 -268 1204 -304 1365 -11 50 -77 347 -147 660 -109 496 -158 715 -205 920 -6 28 -15 67 -20 88 l-10 37 -3300 0 -3299 0 5 -22z"/>
<path d="M161 4200 c0 -8 6 -37 14 -65 l15 -50 -7 45 c-6 48 -21 96 -22 70z"/>
<path d="M200 4019 c1 -28 38 -164 39 -142 1 12 -6 50 -15 85 -16 64 -24 83 -24 57z"/>
<path d="M240 3841 c0 -7 6 -39 14 -70 7 -31 42 -186 77 -344 35 -159 65 -284 67 -278 3 10 -45 244 -68 331 -5 19 -11 46 -13 60 -3 14 -19 88 -36 165 -30 129 -41 167 -41 136z"/>
<path d="M403 3105 c29 -146 75 -335 76 -314 1 21 -69 332 -76 339 -3 3 -3 -8 0 -25z"/>
<path d="M481 2760 c0 -8 6 -37 14 -65 l15 -50 -7 45 c-6 48 -21 96 -22 70z"/>
<path d="M520 2584 c1 -21 38 -167 39 -152 1 19 -28 150 -35 157 -2 2 -4 0 -4 -5z"/>
<path d="M560 2401 c0 -9 54 -249 70 -316 8 -29 8 -29 9 -4 1 14 -3 39 -8 55 -5 16 -13 52 -19 79 -34 158 -52 222 -52 186z"/>
<path d="M643 2030 c8 -59 152 -689 155 -678 1 7 -29 154 -68 326 -38 173 -69 317 -68 320 1 4 -4 18 -11 32 l-11 25 3 -25z"/>
<path d="M800 1324 c0 -5 18 -85 40 -179 22 -93 38 -154 36 -135 -4 41 -65 312 -71 319 -3 2 -5 0 -5 -5z"/>
<path d="M880 963 c1 -26 78 -344 79 -325 1 13 -7 58 -18 100 -10 43 -26 112 -36 155 -9 42 -19 77 -21 77 -2 0 -4 -3 -4 -7z"/>
<path d="M962 590 c27 -136 113 -509 116 -501 4 12 -107 513 -115 521 -3 3 -3 -6 -1 -20z"/>
<path d="M1080 60 c1 -8 9 -25 19 -37 l19 -23 3371 0 c2237 0 3371 3 3371 10 0 7 -1137 11 -3377 12 l-3377 3 -13 25 c-7 14 -13 18 -13 10z"/>
<path d="M7875 10 c-3 -6 5 -10 19 -10 14 0 28 5 31 10 3 6 -5 10 -19 10 -14 0 -28 -4 -31 -10z"/>
</g>
<g id="layer104" fill="#443e3c" stroke="none">
<path d="M0 4891 c0 -17 4 -32 9 -35 5 -3 12 -26 16 -52 3 -25 8 -44 11 -42 2 3 -2 39 -8 81 -12 77 -28 103 -28 48z"/>
<path d="M155 4848 c3 -13 237 -1069 521 -2348 284 -1279 520 -2335 525 -2347 l9 -23 3295 0 c2812 0 3295 2 3295 14 0 8 -79 369 -176 802 -96 434 -182 818 -189 854 -15 67 -268 1204 -304 1365 -11 50 -77 347 -147 660 -109 496 -158 715 -205 920 -6 28 -15 67 -20 88 l-10 37 -3300 0 -3299 0 5 -22z"/>
<path d="M42 4740 c-1 -8 7 -49 17 -90 11 -41 19 -66 19 -55 0 24 -35 166 -36 145z"/>
<path d="M82 4555 c0 -11 4 -31 8 -45 6 -20 8 -21 8 -5 0 11 -4 31 -8 45 -6 20 -8 21 -8 5z"/>
<path d="M142 4285 c0 -11 4 -31 8 -45 6 -20 8 -21 8 -5 0 11 -4 31 -8 45 -6 20 -8 21 -8 5z"/>
<path d="M192 4060 c0 -14 2 -19 5 -12 2 6 2 18 0 25 -3 6 -5 1 -5 -13z"/>
<path d="M201 4020 c0 -8 8 -49 18 -90 11 -41 19 -66 20 -55 0 11 -8 52 -18 90 -11 39 -19 63 -20 55z"/>
<path d="M271 3711 c-1 -22 62 -302 67 -297 2 3 -10 69 -28 148 -33 153 -38 171 -39 149z"/>
<path d="M362 3300 c-1 -8 7 -49 17 -90 11 -41 19 -66 19 -55 0 24 -35 166 -36 145z"/>
<path d="M401 3120 c0 -8 6 -37 13 -65 8 -27 15 -43 15 -35 0 8 -6 38 -13 65 -8 28 -15 43 -15 35z"/>
<path d="M431 2985 c-1 -24 37 -167 38 -145 0 8 -8 49 -18 90 -11 41 -20 66 -20 55z"/>
<path d="M472 2800 c0 -14 2 -19 5 -12 2 6 2 18 0 25 -3 6 -5 1 -5 -13z"/>
<path d="M481 2760 c0 -8 6 -37 13 -65 8 -27 15 -43 15 -35 0 8 -6 38 -13 65 -8 28 -15 43 -15 35z"/>
<path d="M512 2620 c0 -14 2 -19 5 -12 2 6 2 18 0 25 -3 6 -5 1 -5 -13z"/>
<path d="M532 2535 c0 -11 4 -31 8 -45 6 -20 8 -21 8 -5 0 11 -4 31 -8 45 -6 20 -8 21 -8 5z"/>
<path d="M561 2403 c-1 -17 60 -287 66 -293 6 -5 4 9 -27 150 -22 105 -38 161 -39 143z"/>
<path d="M642 2035 c0 -11 4 -31 8 -45 6 -20 8 -21 8 -5 0 11 -4 31 -8 45 -6 20 -8 21 -8 5z"/>
<path d="M662 1945 c0 -11 4 -31 8 -45 l8 -25 0 25 c0 14 -3 34 -8 45 l-9 20 1 -20z"/>
<path d="M692 1815 c0 -11 6 -42 13 -70 7 -27 13 -41 13 -30 0 11 -6 43 -13 70 -7 28 -13 41 -13 30z"/>
<path d="M767 1475 c9 -61 24 -99 17 -45 -4 25 -10 54 -15 65 -6 13 -6 6 -2 -20z"/>
<path d="M792 1360 c0 -14 2 -19 5 -12 2 6 2 18 0 25 -3 6 -5 1 -5 -13z"/>
<path d="M812 1275 c0 -11 4 -31 8 -45 6 -20 8 -21 8 -5 0 11 -4 31 -8 45 -6 20 -8 21 -8 5z"/>
<path d="M832 1180 c0 -14 2 -19 5 -12 2 6 2 18 0 25 -3 6 -5 1 -5 -13z"/>
<path d="M840 1144 c1 -21 38 -167 39 -152 1 19 -28 150 -35 157 -2 2 -4 0 -4 -5z"/>
<path d="M891 920 c0 -8 6 -40 14 -70 7 -30 14 -46 14 -35 0 11 -6 43 -13 70 -8 28 -14 43 -15 35z"/>
<path d="M920 784 c1 -21 38 -167 39 -152 1 19 -28 150 -35 157 -2 2 -4 0 -4 -5z"/>
<path d="M962 595 c0 -11 4 -31 8 -45 6 -20 8 -21 8 -5 0 11 -4 31 -8 45 -6 20 -8 21 -8 5z"/>
<path d="M1043 230 c3 -14 11 -53 18 -88 6 -34 14 -61 16 -58 6 6 -25 158 -34 165 -3 3 -3 -5 0 -19z"/>
<path d="M1080 55 c1 -6 9 -20 19 -32 l19 -23 3371 0 c2241 0 3371 3 3371 10 0 7 -1131 10 -3374 10 l-3375 0 -15 22 c-9 12 -16 18 -16 13z"/>
<path d="M7880 10 c0 -13 37 -13 45 0 4 6 -5 10 -19 10 -14 0 -26 -4 -26 -10z"/>
</g>
<g id="layer105" fill="#4d4946" stroke="none">
<path d="M0 4891 c0 -16 5 -33 10 -36 6 -4 10 6 10 24 0 16 -4 33 -10 36 -6 4 -10 -6 -10 -24z"/>
<path d="M155 4848 c3 -13 237 -1069 521 -2348 284 -1279 520 -2335 525 -2347 l9 -23 3295 0 c2812 0 3295 2 3295 14 0 8 -79 369 -176 802 -96 434 -182 818 -189 854 -15 67 -268 1204 -304 1365 -11 50 -77 347 -147 660 -109 496 -158 715 -205 920 -6 28 -15 67 -20 88 l-10 37 -3300 0 -3299 0 5 -22z m1276 -4515 c13 -16 12 -17 -3 -4 -17 13 -22 21 -14 21 2 0 10 -8 17 -17z"/>
<path d="M42 4735 c0 -11 4 -31 8 -45 6 -20 8 -21 8 -5 0 11 -4 31 -8 45 -6 20 -8 21 -8 5z"/>
<path d="M82 4550 c0 -14 2 -19 5 -12 2 6 2 18 0 25 -3 6 -5 1 -5 -13z"/>
<path d="M102 4465 c0 -24 35 -166 36 -145 1 8 -7 49 -17 90 -11 41 -19 66 -19 55z"/>
<path d="M162 4195 c0 -11 4 -31 8 -45 6 -20 8 -21 8 -5 0 11 -4 31 -8 45 -6 20 -8 21 -8 5z"/>
<path d="M202 4015 c0 -11 4 -31 8 -45 6 -20 8 -21 8 -5 0 11 -4 31 -8 45 -6 20 -8 21 -8 5z"/>
<path d="M242 3835 c0 -11 4 -31 8 -45 6 -20 8 -21 8 -5 0 11 -4 31 -8 45 -6 20 -8 21 -8 5z"/>
<path d="M271 3705 c0 -11 6 -42 13 -70 18 -65 19 -37 1 35 -7 30 -14 46 -14 35z"/>
<path d="M342 3385 c0 -11 4 -31 8 -45 6 -20 8 -21 8 -5 0 11 -4 31 -8 45 -6 20 -8 21 -8 5z"/>
<path d="M362 3295 c0 -11 4 -31 8 -45 6 -20 8 -21 8 -5 0 11 -4 31 -8 45 -6 20 -8 21 -8 5z"/>
<path d="M382 3205 c0 -11 4 -31 8 -45 6 -20 8 -21 8 -5 0 11 -4 31 -8 45 -6 20 -8 21 -8 5z"/>
<path d="M402 3115 c0 -11 4 -31 8 -45 6 -20 8 -21 8 -5 0 11 -4 31 -8 45 -6 20 -8 21 -8 5z"/>
<path d="M431 2985 c0 -11 6 -42 13 -70 18 -65 19 -37 1 35 -7 30 -14 46 -14 35z"/>
<path d="M482 2755 c0 -11 4 -31 8 -45 6 -20 8 -21 8 -5 0 11 -4 31 -8 45 -6 20 -8 21 -8 5z"/>
<path d="M521 2574 c0 -11 3 -14 6 -6 3 7 2 16 -1 19 -3 4 -6 -2 -5 -13z"/>
<path d="M532 2530 c0 -14 2 -19 5 -12 2 6 2 18 0 25 -3 6 -5 1 -5 -13z"/>
<path d="M552 2440 c0 -14 2 -19 5 -12 2 6 2 18 0 25 -3 6 -5 1 -5 -13z"/>
<path d="M562 2390 c0 -8 4 -26 8 -40 6 -20 8 -21 8 -5 0 11 -3 29 -8 40 -5 12 -8 14 -8 5z"/>
<path d="M582 2305 c0 -24 35 -166 36 -145 1 8 -7 49 -17 90 -11 41 -19 66 -19 55z"/>
<path d="M632 2080 c0 -14 2 -19 5 -12 2 6 2 18 0 25 -3 6 -5 1 -5 -13z"/>
<path d="M662 1945 c0 -11 4 -31 8 -45 6 -20 8 -21 8 -5 0 11 -4 31 -8 45 -6 20 -8 21 -8 5z"/>
<path d="M681 1854 c0 -11 3 -14 6 -6 3 7 2 16 -1 19 -3 4 -6 -2 -5 -13z"/>
<path d="M692 1810 c0 -14 2 -19 5 -12 2 6 2 18 0 25 -3 6 -5 1 -5 -13z"/>
<path d="M702 1765 c0 -11 4 -31 8 -45 6 -20 8 -21 8 -5 0 11 -4 31 -8 45 -6 20 -8 21 -8 5z"/>
<path d="M721 1674 c0 -11 3 -14 6 -6 3 7 2 16 -1 19 -3 4 -6 -2 -5 -13z"/>
<path d="M732 1630 c0 -14 2 -19 5 -12 2 6 2 18 0 25 -3 6 -5 1 -5 -13z"/>
<path d="M752 1540 c0 -14 2 -19 5 -12 2 6 2 18 0 25 -3 6 -5 1 -5 -13z"/>
<path d="M761 1494 c0 -11 3 -14 6 -6 3 7 2 16 -1 19 -3 4 -6 -2 -5 -13z"/>
<path d="M801 1314 c0 -11 3 -14 6 -6 3 7 2 16 -1 19 -3 4 -6 -2 -5 -13z"/>
<path d="M812 1270 c0 -14 2 -19 5 -12 2 6 2 18 0 25 -3 6 -5 1 -5 -13z"/>
<path d="M841 1134 c0 -11 3 -14 6 -6 3 7 2 16 -1 19 -3 4 -6 -2 -5 -13z"/>
<path d="M881 954 c0 -11 3 -14 6 -6 3 7 2 16 -1 19 -3 4 -6 -2 -5 -13z"/>
<path d="M892 910 c0 -14 2 -19 5 -12 2 6 2 18 0 25 -3 6 -5 1 -5 -13z"/>
<path d="M912 820 c0 -14 2 -19 5 -12 2 6 2 18 0 25 -3 6 -5 1 -5 -13z"/>
<path d="M921 774 c0 -11 3 -14 6 -6 3 7 2 16 -1 19 -3 4 -6 -2 -5 -13z"/>
<path d="M932 730 c0 -14 2 -19 5 -12 2 6 2 18 0 25 -3 6 -5 1 -5 -13z"/>
<path d="M952 640 c0 -14 2 -19 5 -12 2 6 2 18 0 25 -3 6 -5 1 -5 -13z"/>
<path d="M962 590 c0 -14 2 -19 5 -12 2 6 2 18 0 25 -3 6 -5 1 -5 -13z"/>
<path d="M992 460 c0 -14 2 -19 5 -12 2 6 2 18 0 25 -3 6 -5 1 -5 -13z"/>
<path d="M1001 414 c0 -11 3 -14 6 -6 3 7 2 16 -1 19 -3 4 -6 -2 -5 -13z"/>
<path d="M1012 375 c0 -11 4 -31 8 -45 6 -20 8 -21 8 -5 0 11 -4 31 -8 45 -6 20 -8 21 -8 5z"/>
<path d="M1032 280 c0 -14 2 -19 5 -12 2 6 2 18 0 25 -3 6 -5 1 -5 -13z"/>
<path d="M1041 234 c0 -11 3 -14 6 -6 3 7 2 16 -1 19 -3 4 -6 -2 -5 -13z"/>
<path d="M1052 190 c0 -14 2 -19 5 -12 2 6 2 18 0 25 -3 6 -5 1 -5 -13z"/>
<path d="M1062 145 c0 -11 4 -31 8 -45 6 -20 8 -21 8 -5 0 11 -4 31 -8 45 -6 20 -8 21 -8 5z"/>
<path d="M1080 55 c1 -6 9 -20 19 -32 l19 -23 3366 0 c2237 0 3366 3 3366 10 0 7 -1130 10 -3369 10 l-3370 0 -15 22 c-9 12 -16 18 -16 13z"/>
<path d="M7884 8 c-3 -4 4 -8 15 -8 11 0 22 4 26 9 3 6 -4 9 -16 8 -11 -1 -23 -5 -25 -9z"/>
</g>
<g id="layer106" fill="#64605d" stroke="none">
<path d="M0 4886 c0 -14 5 -28 10 -31 6 -4 10 7 10 24 0 17 -4 31 -10 31 -5 0 -10 -11 -10 -24z"/>
<path d="M31 4774 c0 -11 3 -14 6 -6 3 7 2 16 -1 19 -3 4 -6 -2 -5 -13z"/>
<path d="M71 4594 c0 -11 3 -14 6 -6 3 7 2 16 -1 19 -3 4 -6 -2 -5 -13z"/>
<path d="M102 4460 c0 -14 2 -19 5 -12 2 6 2 18 0 25 -3 6 -5 1 -5 -13z"/>
<path d="M142 4280 c0 -14 2 -19 5 -12 2 6 2 18 0 25 -3 6 -5 1 -5 -13z"/>
<path d="M151 4234 c0 -11 3 -14 6 -6 3 7 2 16 -1 19 -3 4 -6 -2 -5 -13z"/>
<path d="M191 4054 c0 -11 3 -14 6 -6 3 7 2 16 -1 19 -3 4 -6 -2 -5 -13z"/>
<path d="M222 3920 c0 -14 2 -19 5 -12 2 6 2 18 0 25 -3 6 -5 1 -5 -13z"/>
<path d="M231 3874 c0 -11 3 -14 6 -6 3 7 2 16 -1 19 -3 4 -6 -2 -5 -13z"/>
<path d="M261 3744 c0 -11 3 -14 6 -6 3 7 2 16 -1 19 -3 4 -6 -2 -5 -13z"/>
<path d="M272 3690 c0 -14 2 -19 5 -12 2 6 2 18 0 25 -3 6 -5 1 -5 -13z"/>
<path d="M302 3560 c0 -14 2 -19 5 -12 2 6 2 18 0 25 -3 6 -5 1 -5 -13z"/>
<path d="M312 3510 c0 -14 2 -19 5 -12 2 6 2 18 0 25 -3 6 -5 1 -5 -13z"/>
<path d="M331 3424 c0 -11 3 -14 6 -6 3 7 2 16 -1 19 -3 4 -6 -2 -5 -13z"/>
<path d="M351 3334 c0 -11 3 -14 6 -6 3 7 2 16 -1 19 -3 4 -6 -2 -5 -13z"/>
<path d="M391 3154 c0 -11 3 -14 6 -6 3 7 2 16 -1 19 -3 4 -6 -2 -5 -13z"/>
<path d="M442 2930 c0 -8 4 -26 8 -40 6 -20 8 -21 8 -5 0 11 -3 29 -8 40 -5 12 -8 14 -8 5z"/>
<path d="M511 2614 c0 -11 3 -14 6 -6 3 7 2 16 -1 19 -3 4 -6 -2 -5 -13z"/>
<path d="M551 2434 c0 -11 3 -14 6 -6 3 7 2 16 -1 19 -3 4 -6 -2 -5 -13z"/>
<path d="M582 2300 c0 -14 2 -19 5 -12 2 6 2 18 0 25 -3 6 -5 1 -5 -13z"/>
<path d="M592 2250 c0 -14 2 -19 5 -12 2 6 2 18 0 25 -3 6 -5 1 -5 -13z"/>
<path d="M621 2124 c0 -11 3 -14 6 -6 3 7 2 16 -1 19 -3 4 -6 -2 -5 -13z"/>
<path d="M631 2074 c0 -11 3 -14 6 -6 3 7 2 16 -1 19 -3 4 -6 -2 -5 -13z"/>
<path d="M671 1894 c0 -11 3 -14 6 -6 3 7 2 16 -1 19 -3 4 -6 -2 -5 -13z"/>
<path d="M772 1450 c0 -14 2 -19 5 -12 2 6 2 18 0 25 -3 6 -5 1 -5 -13z"/>
<path d="M791 1354 c0 -11 3 -14 6 -6 3 7 2 16 -1 19 -3 4 -6 -2 -5 -13z"/>
<path d="M852 1090 c0 -14 2 -19 5 -12 2 6 2 18 0 25 -3 6 -5 1 -5 -13z"/>
<path d="M871 994 c0 -11 3 -14 6 -6 3 7 2 16 -1 19 -3 4 -6 -2 -5 -13z"/>
<path d="M941 684 c0 -11 3 -14 6 -6 3 7 2 16 -1 19 -3 4 -6 -2 -5 -13z"/>
<path d="M951 634 c0 -11 3 -14 6 -6 3 7 2 16 -1 19 -3 4 -6 -2 -5 -13z"/>
<path d="M1097 25 c10 -13 22 -25 27 -25 5 0 -1 11 -14 25 -30 32 -36 32 -13 0z"/>
<path d="M7895 10 c-19 -8 -19 -9 2 -9 12 -1 25 4 28 9 7 12 -2 12 -30 0z"/>
</g>
<g id="layer107" fill="#0179c3" stroke="none">
<path d="M155 4848 c3 -13 237 -1069 521 -2348 284 -1279 520 -2335 525 -2347 l9 -23 3295 0 c2812 0 3295 2 3295 14 0 8 -79 369 -176 802 -96 434 -182 818 -189 854 -15 67 -268 1204 -304 1365 -11 50 -77 347 -147 660 -109 496 -158 715 -205 920 -6 28 -15 67 -20 88 l-10 37 -3300 0 -3299 0 5 -22z m1380 -2545 c83 -44 292 -156 465 -248 173 -92 443 -236 600 -320 157 -84 566 -302 910 -485 344 -183 699 -373 790 -421 91 -49 166 -85 168 -81 3 10 -14 84 -193 832 -86 360 -161 662 -166 672 -13 24 16 88 41 88 10 0 22 5 25 10 4 6 10 8 15 5 12 -7 2754 -7 2773 1 8 3 29 -2 46 -10 32 -17 36 -27 71 -179 26 -120 282 -1224 345 -1494 30 -128 55 -234 55 -237 0 -2 6 -11 14 -19 13 -13 12 -19 -6 -53 -11 -22 -26 -42 -32 -46 -6 -4 -1363 -8 -3014 -8 l-3004 0 -29 31 c-16 17 -27 35 -24 39 3 5 -9 73 -26 152 -46 206 -45 202 -15 225 22 18 39 20 146 19 67 -1 123 1 125 4 2 3 -1 23 -6 45 -6 22 -57 247 -115 500 -57 253 -113 496 -124 540 -10 44 -35 152 -55 240 -20 88 -41 176 -46 195 -14 45 1 84 38 102 25 13 31 12 53 -2 14 -10 93 -53 175 -97z"/>
</g>
<g id="layer108" fill="#777574" stroke="none">
<path d="M0 4886 c0 -14 5 -28 10 -31 6 -3 10 5 10 19 0 14 -4 28 -10 31 -6 3 -10 -5 -10 -19z"/>
<path d="M22 4820 c0 -14 2 -19 5 -12 2 6 2 18 0 25 -3 6 -5 1 -5 -13z"/>
<path d="M51 4684 c0 -11 3 -14 6 -6 3 7 2 16 -1 19 -3 4 -6 -2 -5 -13z"/>
<path d="M62 4640 c0 -14 2 -19 5 -12 2 6 2 18 0 25 -3 6 -5 1 -5 -13z"/>
<path d="M91 4504 c0 -11 3 -14 6 -6 3 7 2 16 -1 19 -3 4 -6 -2 -5 -13z"/>
<path d="M112 4410 c0 -14 2 -19 5 -12 2 6 2 18 0 25 -3 6 -5 1 -5 -13z"/>
<path d="M121 4364 c0 -11 3 -14 6 -6 3 7 2 16 -1 19 -3 4 -6 -2 -5 -13z"/>
<path d="M131 4324 c0 -11 3 -14 6 -6 3 7 2 16 -1 19 -3 4 -6 -2 -5 -13z"/>
<path d="M171 4144 c0 -11 3 -14 6 -6 3 7 2 16 -1 19 -3 4 -6 -2 -5 -13z"/>
<path d="M181 4104 c0 -11 3 -14 6 -6 3 7 2 16 -1 19 -3 4 -6 -2 -5 -13z"/>
<path d="M211 3964 c0 -11 3 -14 6 -6 3 7 2 16 -1 19 -3 4 -6 -2 -5 -13z"/>
<path d="M251 3784 c0 -11 3 -14 6 -6 3 7 2 16 -1 19 -3 4 -6 -2 -5 -13z"/>
<path d="M281 3644 c0 -11 3 -14 6 -6 3 7 2 16 -1 19 -3 4 -6 -2 -5 -13z"/>
<path d="M291 3604 c0 -11 3 -14 6 -6 3 7 2 16 -1 19 -3 4 -6 -2 -5 -13z"/>
<path d="M342 3380 c0 -14 2 -19 5 -12 2 6 2 18 0 25 -3 6 -5 1 -5 -13z"/>
<path d="M371 3244 c0 -11 3 -14 6 -6 3 7 2 16 -1 19 -3 4 -6 -2 -5 -13z"/>
<path d="M382 3200 c0 -14 2 -19 5 -12 2 6 2 18 0 25 -3 6 -5 1 -5 -13z"/>
<path d="M411 3064 c0 -11 3 -14 6 -6 3 7 2 16 -1 19 -3 4 -6 -2 -5 -13z"/>
<path d="M421 3024 c0 -11 3 -14 6 -6 3 7 2 16 -1 19 -3 4 -6 -2 -5 -13z"/>
<path d="M432 2970 c0 -14 2 -19 5 -12 2 6 2 18 0 25 -3 6 -5 1 -5 -13z"/>
<path d="M451 2884 c0 -11 3 -14 6 -6 3 7 2 16 -1 19 -3 4 -6 -2 -5 -13z"/>
<path d="M461 2844 c0 -11 3 -14 6 -6 3 7 2 16 -1 19 -3 4 -6 -2 -5 -13z"/>
<path d="M471 2794 c0 -11 3 -14 6 -6 3 7 2 16 -1 19 -3 4 -6 -2 -5 -13z"/>
<path d="M491 2704 c0 -11 3 -14 6 -6 3 7 2 16 -1 19 -3 4 -6 -2 -5 -13z"/>
<path d="M501 2664 c0 -11 3 -14 6 -6 3 7 2 16 -1 19 -3 4 -6 -2 -5 -13z"/>
<path d="M531 2524 c0 -11 3 -14 6 -6 3 7 2 16 -1 19 -3 4 -6 -2 -5 -13z"/>
<path d="M541 2484 c0 -11 3 -14 6 -6 3 7 2 16 -1 19 -3 4 -6 -2 -5 -13z"/>
<path d="M571 2344 c0 -11 3 -14 6 -6 3 7 2 16 -1 19 -3 4 -6 -2 -5 -13z"/>
<path d="M601 2204 c0 -11 3 -14 6 -6 3 7 2 16 -1 19 -3 4 -6 -2 -5 -13z"/>
<path d="M611 2164 c0 -11 3 -14 6 -6 3 7 2 16 -1 19 -3 4 -6 -2 -5 -13z"/>
<path d="M651 1984 c0 -11 3 -14 6 -6 3 7 2 16 -1 19 -3 4 -6 -2 -5 -13z"/>
<path d="M662 1940 c0 -14 2 -19 5 -12 2 6 2 18 0 25 -3 6 -5 1 -5 -13z"/>
<path d="M691 1804 c0 -11 3 -14 6 -6 3 7 2 16 -1 19 -3 4 -6 -2 -5 -13z"/>
<path d="M702 1760 c0 -14 2 -19 5 -12 2 6 2 18 0 25 -3 6 -5 1 -5 -13z"/>
<path d="M711 1714 c0 -11 3 -14 6 -6 3 7 2 16 -1 19 -3 4 -6 -2 -5 -13z"/>
<path d="M731 1624 c0 -11 3 -14 6 -6 3 7 2 16 -1 19 -3 4 -6 -2 -5 -13z"/>
<path d="M741 1584 c0 -11 3 -14 6 -6 3 7 2 16 -1 19 -3 4 -6 -2 -5 -13z"/>
<path d="M751 1534 c0 -11 3 -14 6 -6 3 7 2 16 -1 19 -3 4 -6 -2 -5 -13z"/>
<path d="M771 1444 c0 -11 3 -14 6 -6 3 7 2 16 -1 19 -3 4 -6 -2 -5 -13z"/>
<path d="M781 1404 c0 -11 3 -14 6 -6 3 7 2 16 -1 19 -3 4 -6 -2 -5 -13z"/>
<path d="M811 1264 c0 -11 3 -14 6 -6 3 7 2 16 -1 19 -3 4 -6 -2 -5 -13z"/>
<path d="M821 1224 c0 -11 3 -14 6 -6 3 7 2 16 -1 19 -3 4 -6 -2 -5 -13z"/>
<path d="M831 1174 c0 -11 3 -14 6 -6 3 7 2 16 -1 19 -3 4 -6 -2 -5 -13z"/>
<path d="M851 1084 c0 -11 3 -14 6 -6 3 7 2 16 -1 19 -3 4 -6 -2 -5 -13z"/>
<path d="M861 1044 c0 -11 3 -14 6 -6 3 7 2 16 -1 19 -3 4 -6 -2 -5 -13z"/>
<path d="M891 904 c0 -11 3 -14 6 -6 3 7 2 16 -1 19 -3 4 -6 -2 -5 -13z"/>
<path d="M901 864 c0 -11 3 -14 6 -6 3 7 2 16 -1 19 -3 4 -6 -2 -5 -13z"/>
<path d="M911 814 c0 -11 3 -14 6 -6 3 7 2 16 -1 19 -3 4 -6 -2 -5 -13z"/>
<path d="M931 724 c0 -11 3 -14 6 -6 3 7 2 16 -1 19 -3 4 -6 -2 -5 -13z"/>
<path d="M971 544 c0 -11 3 -14 6 -6 3 7 2 16 -1 19 -3 4 -6 -2 -5 -13z"/>
<path d="M981 504 c0 -11 3 -14 6 -6 3 7 2 16 -1 19 -3 4 -6 -2 -5 -13z"/>
<path d="M991 454 c0 -11 3 -14 6 -6 3 7 2 16 -1 19 -3 4 -6 -2 -5 -13z"/>
<path d="M1011 364 c0 -11 3 -14 6 -6 3 7 2 16 -1 19 -3 4 -6 -2 -5 -13z"/>
<path d="M1031 274 c0 -11 3 -14 6 -6 3 7 2 16 -1 19 -3 4 -6 -2 -5 -13z"/>
<path d="M1051 184 c0 -11 3 -14 6 -6 3 7 2 16 -1 19 -3 4 -6 -2 -5 -13z"/>
<path d="M1062 140 c0 -14 2 -19 5 -12 2 6 2 18 0 25 -3 6 -5 1 -5 -13z"/>
<path d="M1071 94 c0 -11 3 -14 6 -6 3 7 2 16 -1 19 -3 4 -6 -2 -5 -13z"/>
<path d="M1110 10 c0 -5 5 -10 11 -10 5 0 7 5 4 10 -3 6 -8 10 -11 10 -2 0 -4 -4 -4 -10z"/>
<path d="M7910 9 c0 -5 5 -7 10 -4 6 3 10 8 10 11 0 2 -4 4 -10 4 -5 0 -10 -5 -10 -11z"/>
</g>
<g id="layer109" fill="#267fc2" stroke="none">
<path d="M155 4848 c3 -13 237 -1069 521 -2348 284 -1279 520 -2335 525 -2347 l9 -23 3295 0 c2812 0 3295 2 3295 14 0 8 -79 369 -176 802 -96 434 -182 818 -189 854 -15 67 -268 1204 -304 1365 -11 50 -77 347 -147 660 -109 496 -158 715 -205 920 -6 28 -15 67 -20 88 l-10 37 -3300 0 -3299 0 5 -22z m6328 -264 c-1 -7 5 -11 15 -10 18 1 23 -16 81 -259 116 -489 240 -1015 300 -1275 39 -168 77 -316 84 -330 17 -31 5 -80 -22 -97 -16 -10 -331 -13 -1453 -13 -1380 0 -1433 0 -1451 18 -17 18 -60 186 -49 197 3 2 -1 11 -8 20 -7 8 -10 22 -6 30 3 8 1 15 -5 15 -5 0 -9 6 -8 13 1 6 0 19 -3 27 -7 18 -87 347 -92 375 -2 11 -6 27 -9 35 -8 21 -27 110 -31 141 -1 13 -6 30 -10 37 -4 7 -5 19 -2 27 2 7 1 15 -3 17 -13 5 -64 225 -55 239 5 8 3 10 -6 4 -10 -6 -12 -4 -7 9 4 9 2 24 -3 34 -15 26 -71 272 -65 283 4 5 2 9 -4 9 -5 0 -12 18 -16 40 -4 22 -11 42 -16 46 -5 3 -94 -55 -197 -129 -429 -307 -839 -601 -868 -623 -17 -13 -44 -24 -60 -25 -16 0 -23 -3 -16 -6 20 -8 3 -23 -26 -23 -18 0 -23 -3 -14 -9 16 -10 47 14 -448 -341 -217 -156 -469 -337 -560 -402 -109 -78 -173 -118 -191 -118 -36 0 -66 37 -72 90 -3 25 -13 71 -22 104 -20 71 -27 112 -28 149 0 15 -4 27 -10 27 -5 0 -7 7 -3 15 3 8 2 15 -2 15 -10 0 -33 110 -26 121 3 5 1 9 -5 9 -5 0 -12 19 -16 43 -4 23 -22 103 -40 177 -18 74 -47 198 -65 275 -18 77 -48 205 -67 285 -19 80 -36 156 -37 170 -3 24 -7 38 -27 88 -9 22 -13 23 -126 22 -133 -2 -151 2 -159 36 -3 13 -11 21 -16 18 -7 -4 -9 7 -6 30 2 20 1 36 -3 36 -4 0 -8 8 -8 18 0 9 -7 48 -16 87 -8 38 -13 75 -11 82 3 7 1 13 -4 13 -6 0 -10 8 -10 18 0 10 -6 24 -12 31 -10 10 -10 15 -2 18 7 2 10 12 8 21 -2 9 0 24 6 32 8 13 354 16 2982 20 1635 3 2984 5 2998 5 14 0 24 -5 23 -11z m-4948 -2281 c83 -44 292 -156 465 -248 173 -92 443 -236 600 -320 157 -84 566 -302 910 -485 344 -183 699 -373 790 -421 91 -49 166 -85 168 -81 3 10 -14 84 -193 832 -86 360 -161 662 -166 672 -13 24 16 88 41 88 10 0 22 5 25 10 4 6 10 8 15 5 12 -7 2754 -7 2773 1 8 3 29 -2 46 -10 32 -17 36 -27 71 -179 26 -120 282 -1224 345 -1494 30 -128 55 -234 55 -237 0 -2 6 -11 14 -19 13 -13 12 -19 -6 -53 -11 -22 -26 -42 -32 -46 -6 -4 -1363 -8 -3014 -8 l-3004 0 -29 31 c-16 17 -27 35 -24 39 3 5 -9 73 -26 152 -46 206 -45 202 -15 225 22 18 39 20 146 19 67 -1 123 1 125 4 2 3 -1 23 -6 45 -6 22 -57 247 -115 500 -57 253 -113 496 -124 540 -10 44 -35 152 -55 240 -20 88 -41 176 -46 195 -14 45 1 84 38 102 25 13 31 12 53 -2 14 -10 93 -53 175 -97z"/>
<path d="M6453 4583 c4 -3 10 -3 14 0 3 4 0 7 -7 7 -7 0 -10 -3 -7 -7z"/>
<path d="M616 4463 c-4 -4 39 -192 46 -198 3 -3 65 -6 137 -7 135 -1 147 -5 155 -44 6 -26 43 -189 125 -539 157 -674 221 -949 221 -953 0 -14 24 3 560 388 140 101 311 224 380 273 69 50 144 103 167 120 22 16 44 29 47 29 3 -1 17 9 31 22 22 21 172 129 720 521 318 228 400 288 415 305 18 21 66 34 75 20 3 -5 15 -10 25 -10 23 0 40 -28 40 -67 0 -15 27 -140 60 -278 33 -137 80 -333 105 -435 24 -102 72 -300 105 -440 34 -140 71 -295 83 -345 l22 -90 1342 -3 1341 -2 -14 61 c-8 33 -12 64 -9 69 3 5 0 10 -5 12 -6 2 -12 21 -15 43 -2 22 -5 42 -6 45 -1 3 -3 10 -4 15 -1 6 -5 18 -10 28 -4 10 -5 21 -1 24 3 3 2 11 -3 17 -15 17 -60 226 -54 244 5 11 3 13 -7 7 -10 -6 -12 -4 -7 10 4 9 3 23 -2 29 -8 11 -29 90 -35 136 -2 14 -7 33 -11 42 -4 9 -4 21 -1 27 3 5 2 11 -3 13 -8 3 -77 279 -85 338 -2 14 -7 33 -11 42 -4 9 -4 22 0 28 3 5 1 10 -5 10 -7 0 -9 7 -6 17 4 9 2 19 -4 23 -5 3 -11 19 -14 36 -2 16 -6 36 -9 44 -15 39 -47 202 -42 210 3 6 2 10 -3 10 -6 0 -16 29 -23 65 -7 36 -19 71 -27 77 -10 9 -736 12 -2899 12 -1586 1 -2886 0 -2887 -1z"/>
<path d="M900 4235 c0 -8 7 -15 15 -15 8 0 15 7 15 15 0 8 -7 15 -15 15 -8 0 -15 -7 -15 -15z"/>
<path d="M3945 3020 c3 -5 8 -10 11 -10 3 0 2 5 -1 10 -3 6 -8 10 -11 10 -3 0 -2 -4 1 -10z"/>
</g>
<g id="layer110" fill="#248fcc" stroke="none">
<path d="M155 4848 c3 -13 237 -1069 521 -2348 284 -1279 520 -2335 525 -2347 l9 -23 3295 0 c2812 0 3295 2 3295 14 0 8 -79 369 -176 802 -96 434 -182 818 -189 854 -15 67 -268 1204 -304 1365 -11 50 -77 347 -147 660 -109 496 -158 715 -205 920 -6 28 -15 67 -20 88 l-10 37 -3300 0 -3299 0 5 -22z m6328 -264 c-1 -7 5 -11 15 -10 18 1 23 -16 81 -259 116 -489 240 -1015 300 -1275 39 -168 77 -316 84 -330 17 -31 5 -80 -22 -97 -16 -10 -331 -13 -1453 -13 l-1433 -1 -22 26 c-13 14 -23 35 -23 46 0 23 -51 240 -216 921 -25 103 -42 192 -38 199 4 8 3 9 -4 5 -7 -4 -12 -1 -12 8 0 26 -92 400 -101 410 -7 8 -58 -27 -709 -494 -179 -128 -521 -374 -760 -545 -239 -172 -536 -385 -660 -474 -143 -102 -234 -161 -249 -161 -32 0 -71 37 -71 66 0 12 -14 80 -31 151 -16 70 -44 187 -60 258 -17 72 -46 195 -65 275 -34 148 -59 256 -134 575 -23 99 -47 198 -53 220 l-12 40 -110 2 c-60 1 -118 2 -127 3 -24 0 -68 50 -68 76 0 33 -51 278 -61 290 -7 8 4 74 14 86 1 2 5820 15 5977 13 14 0 24 -5 23 -11z m-4948 -2281 c83 -44 292 -156 465 -248 173 -92 443 -236 600 -320 157 -84 566 -302 910 -485 344 -183 699 -373 790 -421 91 -49 166 -85 168 -81 3 10 -14 84 -193 832 -86 360 -161 662 -166 672 -13 24 16 88 41 88 10 0 22 5 25 10 4 6 10 8 15 5 12 -7 2754 -7 2773 1 8 3 29 -2 46 -10 32 -17 36 -27 71 -179 26 -120 282 -1224 345 -1494 30 -128 55 -234 55 -237 0 -2 6 -11 14 -19 13 -13 12 -19 -6 -53 -11 -22 -26 -42 -32 -46 -6 -4 -1363 -8 -3014 -8 l-3004 0 -29 31 c-16 17 -27 35 -24 39 3 5 -9 73 -26 152 -46 206 -45 202 -15 225 22 18 39 20 146 19 67 -1 123 1 125 4 2 3 -1 23 -6 45 -6 22 -57 247 -115 500 -57 253 -113 496 -124 540 -10 44 -35 152 -55 240 -20 88 -41 176 -46 195 -14 45 1 84 38 102 25 13 31 12 53 -2 14 -10 93 -53 175 -97z"/>
<path d="M635 4363 l22 -98 136 -3 c100 -2 138 -6 147 -16 6 -8 26 -81 45 -163 18 -81 63 -274 99 -428 165 -708 216 -929 216 -933 0 -14 25 3 560 388 323 233 503 361 593 426 40 28 243 174 452 324 209 151 416 299 460 330 142 100 240 173 255 190 18 21 66 34 75 20 3 -5 15 -10 25 -10 23 0 40 -28 40 -67 0 -15 27 -140 60 -278 33 -137 80 -333 105 -435 24 -102 72 -300 105 -440 34 -140 70 -293 82 -340 11 -47 23 -88 27 -93 4 -4 608 -6 1342 -5 l1336 3 -39 165 c-48 207 -77 330 -128 545 -185 775 -201 845 -195 855 4 6 2 10 -3 10 -5 0 -15 28 -22 63 -7 34 -17 68 -23 75 -7 9 -600 12 -2901 12 l-2892 0 21 -97z"/>
</g>
<g id="layer111" fill="#808081" stroke="none">
<path d="M41 4724 c0 -11 3 -14 6 -6 3 7 2 16 -1 19 -3 4 -6 -2 -5 -13z"/>
<path d="M81 4544 c0 -11 3 -14 6 -6 3 7 2 16 -1 19 -3 4 -6 -2 -5 -13z"/>
<path d="M361 3284 c0 -11 3 -14 6 -6 3 7 2 16 -1 19 -3 4 -6 -2 -5 -13z"/>
<path d="M680 1850 c0 -7 3 -10 7 -7 3 4 3 10 0 14 -4 3 -7 0 -7 -7z"/>
<path d="M920 770 c0 -7 3 -10 7 -7 3 4 3 10 0 14 -4 3 -7 0 -7 -7z"/>
<path d="M1000 410 c0 -7 3 -10 7 -7 3 4 3 10 0 14 -4 3 -7 0 -7 -7z"/>
<path d="M1021 324 c0 -11 3 -14 6 -6 3 7 2 16 -1 19 -3 4 -6 -2 -5 -13z"/>
</g>
<g id="layer112" fill="#83817e" stroke="none">
<path d="M0 4888 c0 -15 5 -30 10 -33 13 -8 13 25 0 45 -8 12 -10 9 -10 -12z"/>
<path d="M161 4184 c0 -11 3 -14 6 -6 3 7 2 16 -1 19 -3 4 -6 -2 -5 -13z"/>
<path d="M271 3684 c0 -11 3 -14 6 -6 3 7 2 16 -1 19 -3 4 -6 -2 -5 -13z"/>
<path d="M401 3104 c0 -11 3 -14 6 -6 3 7 2 16 -1 19 -3 4 -6 -2 -5 -13z"/>
<path d="M441 2924 c0 -11 3 -14 6 -6 3 7 2 16 -1 19 -3 4 -6 -2 -5 -13z"/>
<path d="M720 1670 c0 -7 3 -10 7 -7 3 4 3 10 0 14 -4 3 -7 0 -7 -7z"/>
<path d="M760 1490 c0 -7 3 -10 7 -7 3 4 3 10 0 14 -4 3 -7 0 -7 -7z"/>
<path d="M800 1310 c0 -7 3 -10 7 -7 3 4 3 10 0 14 -4 3 -7 0 -7 -7z"/>
<path d="M1040 230 c0 -7 3 -10 7 -7 3 4 3 10 0 14 -4 3 -7 0 -7 -7z"/>
<path d="M1085 40 c3 -5 8 -10 11 -10 3 0 2 5 -1 10 -3 6 -8 10 -11 10 -3 0 -2 -4 1 -10z"/>
</g>
<g id="layer113" fill="#8f8f8c" stroke="none">
<path d="M97 5069 c-9 -17 -15 -35 -11 -40 3 -5 -2 -9 -10 -9 -8 0 -18 -4 -21 -10 -9 -15 6699 -14 6727 1 17 9 24 8 33 -5 7 -9 19 -16 27 -16 16 0 38 -40 38 -70 0 -11 36 -183 81 -383 44 -199 91 -411 104 -472 13 -60 45 -202 70 -315 25 -113 50 -223 54 -245 12 -58 248 -1119 265 -1190 44 -185 486 -2185 486 -2198 0 -21 19 -26 53 -14 19 6 27 16 27 33 0 13 5 24 10 24 14 0 12 33 -4 88 -8 26 -42 173 -76 327 -114 520 -178 809 -225 1015 -25 113 -57 255 -70 315 -13 61 -58 263 -100 450 -42 187 -80 358 -84 380 -12 56 -137 619 -166 745 -61 262 -327 1471 -336 1523 -5 32 -15 67 -22 78 -12 19 -61 19 -3422 19 l-3410 0 -18 -31z"/>
<path d="M0 4883 c0 -12 5 -25 10 -28 13 -8 13 15 0 35 -8 12 -10 11 -10 -7z"/>
<path d="M30 4770 c0 -7 3 -10 7 -7 3 4 3 10 0 14 -4 3 -7 0 -7 -7z"/>
<path d="M50 4680 c0 -7 3 -10 7 -7 3 4 3 10 0 14 -4 3 -7 0 -7 -7z"/>
<path d="M70 4590 c0 -7 3 -10 7 -7 3 4 3 10 0 14 -4 3 -7 0 -7 -7z"/>
<path d="M90 4500 c0 -7 3 -10 7 -7 3 4 3 10 0 14 -4 3 -7 0 -7 -7z"/>
<path d="M130 4320 c0 -7 3 -10 7 -7 3 4 3 10 0 14 -4 3 -7 0 -7 -7z"/>
<path d="M170 4140 c0 -7 3 -10 7 -7 3 4 3 10 0 14 -4 3 -7 0 -7 -7z"/>
<path d="M201 4004 c0 -11 3 -14 6 -6 3 7 2 16 -1 19 -3 4 -6 -2 -5 -13z"/>
<path d="M210 3960 c0 -7 3 -10 7 -7 3 4 3 10 0 14 -4 3 -7 0 -7 -7z"/>
<path d="M221 3914 c0 -11 3 -14 6 -6 3 7 2 16 -1 19 -3 4 -6 -2 -5 -13z"/>
<path d="M230 3870 c0 -7 3 -10 7 -7 3 4 3 10 0 14 -4 3 -7 0 -7 -7z"/>
<path d="M241 3824 c0 -11 3 -14 6 -6 3 7 2 16 -1 19 -3 4 -6 -2 -5 -13z"/>
<path d="M301 3554 c0 -11 3 -14 6 -6 3 7 2 16 -1 19 -3 4 -6 -2 -5 -13z"/>
<path d="M321 3464 c0 -11 3 -14 6 -6 3 7 2 16 -1 19 -3 4 -6 -2 -5 -13z"/>
<path d="M350 3330 c0 -7 3 -10 7 -7 3 4 3 10 0 14 -4 3 -7 0 -7 -7z"/>
<path d="M390 3150 c0 -7 3 -10 7 -7 3 4 3 10 0 14 -4 3 -7 0 -7 -7z"/>
<path d="M481 2744 c0 -11 3 -14 6 -6 3 7 2 16 -1 19 -3 4 -6 -2 -5 -13z"/>
<path d="M520 2570 c0 -7 3 -10 7 -7 3 4 3 10 0 14 -4 3 -7 0 -7 -7z"/>
<path d="M550 2430 c0 -7 3 -10 7 -7 3 4 3 10 0 14 -4 3 -7 0 -7 -7z"/>
<path d="M561 2384 c0 -11 3 -14 6 -6 3 7 2 16 -1 19 -3 4 -6 -2 -5 -13z"/>
<path d="M591 2244 c0 -11 3 -14 6 -6 3 7 2 16 -1 19 -3 4 -6 -2 -5 -13z"/>
<path d="M620 2120 c0 -7 3 -10 7 -7 3 4 3 10 0 14 -4 3 -7 0 -7 -7z"/>
<path d="M641 2024 c0 -11 3 -14 6 -6 3 7 2 16 -1 19 -3 4 -6 -2 -5 -13z"/>
<path d="M670 1890 c0 -7 3 -10 7 -7 3 4 3 10 0 14 -4 3 -7 0 -7 -7z"/>
<path d="M710 1710 c0 -7 3 -10 7 -7 3 4 3 10 0 14 -4 3 -7 0 -7 -7z"/>
<path d="M840 1130 c0 -7 3 -10 7 -7 3 4 3 10 0 14 -4 3 -7 0 -7 -7z"/>
<path d="M870 990 c0 -7 3 -10 7 -7 3 4 3 10 0 14 -4 3 -7 0 -7 -7z"/>
<path d="M880 950 c0 -7 3 -10 7 -7 3 4 3 10 0 14 -4 3 -7 0 -7 -7z"/>
<path d="M961 584 c0 -11 3 -14 6 -6 3 7 2 16 -1 19 -3 4 -6 -2 -5 -13z"/>
<path d="M990 450 c0 -7 3 -10 7 -7 3 4 3 10 0 14 -4 3 -7 0 -7 -7z"/>
</g>
<g id="layer114" fill="#51a1cd" stroke="none">
</g>
<g id="layer115" fill="#6da0b9" stroke="none">
</g>
<g id="layer116" fill="#a9a9a8" stroke="none">
<path d="M109 5088 c-1 -7 -1 -19 0 -26 1 -7 -4 -11 -11 -10 -7 2 -12 -5 -12 -14 1 -10 -4 -18 -12 -18 -7 0 -16 -4 -19 -10 -9 -15 6699 -14 6727 1 17 9 24 8 33 -5 7 -9 19 -16 27 -16 16 0 38 -40 38 -70 0 -11 36 -183 81 -383 44 -199 91 -411 104 -472 13 -60 45 -202 70 -315 25 -113 50 -223 54 -245 12 -58 248 -1119 265 -1190 44 -185 486 -2185 486 -2198 0 -8 6 -17 13 -20 21 -7 47 5 47 22 0 14 2 14 10 1 8 -12 10 -9 10 13 0 15 6 27 13 27 9 0 8 3 -2 9 -11 7 -11 9 0 13 10 3 10 15 -3 59 -9 30 -44 180 -78 334 -126 574 -180 815 -225 1015 -25 113 -57 255 -70 315 -13 61 -58 263 -100 450 -42 187 -80 358 -84 380 -12 56 -137 619 -166 745 -61 262 -327 1471 -336 1523 -5 32 -15 67 -22 78 -12 19 -61 19 -3424 19 -2723 0 -3413 -3 -3414 -12z"/>
<path d="M0 4878 c0 -9 5 -20 10 -23 13 -8 13 5 0 25 -8 13 -10 13 -10 -2z"/>
<path d="M155 4848 c3 -13 237 -1069 521 -2348 284 -1279 520 -2335 525 -2347 l9 -23 3295 0 c2812 0 3295 2 3295 14 0 8 -79 369 -176 802 -96 434 -182 818 -189 854 -15 67 -268 1204 -304 1365 -11 50 -77 347 -147 660 -109 496 -158 715 -205 920 -6 28 -15 67 -20 88 l-10 37 -3300 0 -3299 0 5 -22z m6342 -266 c23 -18 22 -11 128 -462 18 -80 96 -410 173 -735 77 -324 143 -606 147 -625 4 -19 13 -44 19 -55 16 -26 3 -76 -23 -92 -16 -10 -331 -13 -1453 -13 l-1433 -1 -22 26 c-13 14 -23 35 -23 46 0 18 -49 233 -124 539 -34 140 -143 595 -208 865 -17 72 -34 134 -39 139 -7 8 -59 -27 -709 -494 -179 -128 -521 -374 -760 -545 -239 -172 -536 -385 -660 -474 -143 -102 -234 -161 -249 -161 -32 0 -71 37 -71 66 0 12 -14 80 -31 151 -16 70 -44 187 -60 258 -17 72 -46 195 -65 275 -34 148 -59 256 -134 575 -23 99 -47 198 -53 220 l-12 40 -110 2 c-60 1 -118 2 -127 3 -24 0 -68 50 -68 76 0 33 -51 278 -61 290 -7 8 4 74 14 86 1 2 1341 5 2977 8 1636 3 2984 6 2995 7 11 2 30 -5 42 -15z m-4962 -2279 c83 -44 292 -156 465 -248 173 -92 443 -236 600 -320 157 -84 566 -302 910 -485 344 -183 699 -373 790 -421 91 -49 166 -85 168 -81 3 10 -14 84 -193 832 -86 360 -161 662 -166 672 -13 24 16 88 41 88 10 0 22 5 25 10 4 6 10 8 15 5 12 -7 2754 -7 2773 1 8 3 29 -2 46 -10 32 -17 36 -27 71 -179 26 -120 282 -1224 345 -1494 30 -128 55 -234 55 -237 0 -2 6 -11 14 -19 13 -13 12 -19 -6 -53 -11 -22 -26 -42 -32 -46 -6 -4 -1363 -8 -3014 -8 l-3004 0 -29 31 c-16 17 -27 35 -24 39 3 5 -9 73 -26 152 -46 206 -45 202 -15 225 22 18 39 20 146 19 67 -1 123 1 125 4 2 3 -1 23 -6 45 -6 22 -57 247 -115 500 -57 253 -113 496 -124 540 -10 44 -35 152 -55 240 -20 88 -41 176 -46 195 -14 45 1 84 38 102 25 13 31 12 53 -2 14 -10 93 -53 175 -97z"/>
<path d="M21 4814 c0 -11 3 -14 6 -6 3 7 2 16 -1 19 -3 4 -6 -2 -5 -13z"/>
<path d="M61 4634 c0 -11 3 -14 6 -6 3 7 2 16 -1 19 -3 4 -6 -2 -5 -13z"/>
<path d="M101 4454 c0 -11 3 -14 6 -6 3 7 2 16 -1 19 -3 4 -6 -2 -5 -13z"/>
<path d="M111 4404 c0 -11 3 -14 6 -6 3 7 2 16 -1 19 -3 4 -6 -2 -5 -13z"/>
<path d="M120 4360 c0 -7 3 -10 7 -7 3 4 3 10 0 14 -4 3 -7 0 -7 -7z"/>
<path d="M141 4274 c0 -11 3 -14 6 -6 3 7 2 16 -1 19 -3 4 -6 -2 -5 -13z"/>
<path d="M150 4230 c0 -7 3 -10 7 -7 3 4 3 10 0 14 -4 3 -7 0 -7 -7z"/>
<path d="M180 4100 c0 -7 3 -10 7 -7 3 4 3 10 0 14 -4 3 -7 0 -7 -7z"/>
<path d="M190 4050 c0 -7 3 -10 7 -7 3 4 3 10 0 14 -4 3 -7 0 -7 -7z"/>
<path d="M250 3780 c0 -7 3 -10 7 -7 3 4 3 10 0 14 -4 3 -7 0 -7 -7z"/>
<path d="M260 3740 c0 -7 3 -10 7 -7 3 4 3 10 0 14 -4 3 -7 0 -7 -7z"/>
<path d="M290 3600 c0 -7 3 -10 7 -7 3 4 3 10 0 14 -4 3 -7 0 -7 -7z"/>
<path d="M311 3504 c0 -11 3 -14 6 -6 3 7 2 16 -1 19 -3 4 -6 -2 -5 -13z"/>
<path d="M330 3420 c0 -7 3 -10 7 -7 3 4 3 10 0 14 -4 3 -7 0 -7 -7z"/>
<path d="M341 3374 c0 -11 3 -14 6 -6 3 7 2 16 -1 19 -3 4 -6 -2 -5 -13z"/>
<path d="M370 3240 c0 -7 3 -10 7 -7 3 4 3 10 0 14 -4 3 -7 0 -7 -7z"/>
<path d="M381 3194 c0 -11 3 -14 6 -6 3 7 2 16 -1 19 -3 4 -6 -2 -5 -13z"/>
<path d="M410 3060 c0 -7 3 -10 7 -7 3 4 3 10 0 14 -4 3 -7 0 -7 -7z"/>
<path d="M420 3020 c0 -7 3 -10 7 -7 3 4 3 10 0 14 -4 3 -7 0 -7 -7z"/>
<path d="M431 2964 c0 -11 3 -14 6 -6 3 7 2 16 -1 19 -3 4 -6 -2 -5 -13z"/>
<path d="M450 2880 c0 -7 3 -10 7 -7 3 4 3 10 0 14 -4 3 -7 0 -7 -7z"/>
<path d="M460 2840 c0 -7 3 -10 7 -7 3 4 3 10 0 14 -4 3 -7 0 -7 -7z"/>
<path d="M470 2790 c0 -7 3 -10 7 -7 3 4 3 10 0 14 -4 3 -7 0 -7 -7z"/>
<path d="M490 2700 c0 -7 3 -10 7 -7 3 4 3 10 0 14 -4 3 -7 0 -7 -7z"/>
<path d="M500 2660 c0 -7 3 -10 7 -7 3 4 3 10 0 14 -4 3 -7 0 -7 -7z"/>
<path d="M510 2610 c0 -7 3 -10 7 -7 3 4 3 10 0 14 -4 3 -7 0 -7 -7z"/>
<path d="M530 2520 c0 -7 3 -10 7 -7 3 4 3 10 0 14 -4 3 -7 0 -7 -7z"/>
<path d="M540 2480 c0 -7 3 -10 7 -7 3 4 3 10 0 14 -4 3 -7 0 -7 -7z"/>
<path d="M570 2340 c0 -7 3 -10 7 -7 3 4 3 10 0 14 -4 3 -7 0 -7 -7z"/>
<path d="M581 2294 c0 -11 3 -14 6 -6 3 7 2 16 -1 19 -3 4 -6 -2 -5 -13z"/>
<path d="M610 2160 c0 -7 3 -10 7 -7 3 4 3 10 0 14 -4 3 -7 0 -7 -7z"/>
<path d="M630 2070 c0 -7 3 -10 7 -7 3 4 3 10 0 14 -4 3 -7 0 -7 -7z"/>
<path d="M650 1980 c0 -7 3 -10 7 -7 3 4 3 10 0 14 -4 3 -7 0 -7 -7z"/>
<path d="M661 1934 c0 -11 3 -14 6 -6 3 7 2 16 -1 19 -3 4 -6 -2 -5 -13z"/>
<path d="M690 1800 c0 -7 3 -10 7 -7 3 4 3 10 0 14 -4 3 -7 0 -7 -7z"/>
<path d="M701 1754 c0 -11 3 -14 6 -6 3 7 2 16 -1 19 -3 4 -6 -2 -5 -13z"/>
<path d="M730 1620 c0 -7 3 -10 7 -7 3 4 3 10 0 14 -4 3 -7 0 -7 -7z"/>
<path d="M740 1580 c0 -7 3 -10 7 -7 3 4 3 10 0 14 -4 3 -7 0 -7 -7z"/>
<path d="M750 1530 c0 -7 3 -10 7 -7 3 4 3 10 0 14 -4 3 -7 0 -7 -7z"/>
<path d="M770 1440 c0 -7 3 -10 7 -7 3 4 3 10 0 14 -4 3 -7 0 -7 -7z"/>
<path d="M780 1400 c0 -7 3 -10 7 -7 3 4 3 10 0 14 -4 3 -7 0 -7 -7z"/>
<path d="M790 1350 c0 -7 3 -10 7 -7 3 4 3 10 0 14 -4 3 -7 0 -7 -7z"/>
<path d="M810 1260 c0 -7 3 -10 7 -7 3 4 3 10 0 14 -4 3 -7 0 -7 -7z"/>
<path d="M820 1220 c0 -7 3 -10 7 -7 3 4 3 10 0 14 -4 3 -7 0 -7 -7z"/>
<path d="M830 1170 c0 -7 3 -10 7 -7 3 4 3 10 0 14 -4 3 -7 0 -7 -7z"/>
<path d="M850 1080 c0 -7 3 -10 7 -7 3 4 3 10 0 14 -4 3 -7 0 -7 -7z"/>
<path d="M860 1040 c0 -7 3 -10 7 -7 3 4 3 10 0 14 -4 3 -7 0 -7 -7z"/>
<path d="M890 900 c0 -7 3 -10 7 -7 3 4 3 10 0 14 -4 3 -7 0 -7 -7z"/>
<path d="M900 860 c0 -7 3 -10 7 -7 3 4 3 10 0 14 -4 3 -7 0 -7 -7z"/>
<path d="M910 810 c0 -7 3 -10 7 -7 3 4 3 10 0 14 -4 3 -7 0 -7 -7z"/>
<path d="M930 720 c0 -7 3 -10 7 -7 3 4 3 10 0 14 -4 3 -7 0 -7 -7z"/>
<path d="M940 680 c0 -7 3 -10 7 -7 3 4 3 10 0 14 -4 3 -7 0 -7 -7z"/>
<path d="M950 630 c0 -7 3 -10 7 -7 3 4 3 10 0 14 -4 3 -7 0 -7 -7z"/>
<path d="M970 540 c0 -7 3 -10 7 -7 3 4 3 10 0 14 -4 3 -7 0 -7 -7z"/>
<path d="M980 500 c0 -7 3 -10 7 -7 3 4 3 10 0 14 -4 3 -7 0 -7 -7z"/>
<path d="M1010 360 c0 -7 3 -10 7 -7 3 4 3 10 0 14 -4 3 -7 0 -7 -7z"/>
<path d="M1030 270 c0 -7 3 -10 7 -7 3 4 3 10 0 14 -4 3 -7 0 -7 -7z"/>
<path d="M1050 180 c0 -7 3 -10 7 -7 3 4 3 10 0 14 -4 3 -7 0 -7 -7z"/>
<path d="M1061 134 c0 -11 3 -14 6 -6 3 7 2 16 -1 19 -3 4 -6 -2 -5 -13z"/>
<path d="M1070 90 c0 -7 3 -10 7 -7 3 4 3 10 0 14 -4 3 -7 0 -7 -7z"/>
<path d="M1110 10 c0 -7 3 -10 7 -7 3 4 3 10 0 14 -4 3 -7 0 -7 -7z"/>
</g>
<g id="layer117" fill="#99aec1" stroke="none">
<path d="M155 4848 c3 -13 237 -1069 521 -2348 284 -1279 520 -2335 525 -2347 l9 -23 3295 0 c2812 0 3295 2 3295 14 0 8 -79 369 -176 802 -96 434 -182 818 -189 854 -15 67 -268 1204 -304 1365 -11 50 -77 347 -147 660 -109 496 -158 715 -205 920 -6 28 -15 67 -20 88 l-10 37 -3300 0 -3299 0 5 -22z m6342 -266 c23 -18 22 -11 128 -462 18 -80 96 -410 173 -735 77 -324 143 -606 147 -625 4 -19 13 -44 19 -55 16 -26 3 -76 -23 -92 -16 -10 -331 -13 -1453 -13 l-1433 -1 -22 26 c-13 14 -23 35 -23 46 0 18 -49 233 -124 539 -34 140 -143 595 -208 865 -17 72 -34 134 -39 139 -7 8 -59 -27 -709 -494 -179 -128 -521 -374 -760 -545 -239 -172 -536 -385 -660 -474 -143 -102 -234 -161 -249 -161 -32 0 -71 37 -71 66 0 12 -14 80 -31 151 -16 70 -44 187 -60 258 -17 72 -46 195 -65 275 -34 148 -59 256 -134 575 -23 99 -47 198 -53 220 l-12 40 -110 2 c-60 1 -118 2 -127 3 -24 0 -68 50 -68 76 0 33 -51 278 -61 290 -7 8 4 74 14 86 1 2 1341 5 2977 8 1636 3 2984 6 2995 7 11 2 30 -5 42 -15z m-4795 -2248 c161 -86 370 -197 463 -247 94 -49 262 -139 375 -199 355 -191 486 -261 820 -438 179 -95 381 -203 450 -240 69 -37 217 -117 330 -177 113 -61 227 -122 253 -138 l48 -27 -5 28 c-13 72 -319 1341 -327 1356 -13 25 16 86 45 94 15 3 26 14 28 26 2 12 14 29 28 39 24 18 81 19 1444 19 781 0 1422 -3 1425 -8 3 -5 13 -11 23 -15 9 -3 19 -21 23 -39 4 -18 33 -148 66 -288 32 -140 126 -547 209 -905 82 -357 154 -658 160 -667 15 -26 12 -58 -5 -64 -8 -4 -15 -13 -15 -21 0 -8 -8 -17 -18 -20 -10 -2 -24 -18 -31 -34 -7 -16 -20 -36 -28 -44 -13 -13 -382 -15 -3020 -15 l-3005 0 -29 31 c-16 17 -27 35 -24 39 3 5 -9 73 -26 152 -47 215 -47 198 -9 229 18 15 38 25 45 23 9 -4 11 3 8 20 -8 41 33 60 117 53 38 -3 72 -2 75 3 4 7 -139 645 -225 1005 -10 44 -35 152 -55 240 -20 88 -40 175 -46 193 -14 43 4 102 32 102 11 0 25 13 35 33 24 46 34 57 55 57 10 0 150 -70 311 -156z"/>
</g>
<g id="layer118" fill="#c0c1bf" stroke="none">
<path d="M106 5085 c-4 -13 -2 -14 14 -5 23 13 26 20 6 20 -8 0 -16 -7 -20 -15z"/>
<path d="M6930 5076 c14 -13 26 -22 28 -21 8 7 -24 45 -38 45 -10 0 -7 -7 10 -24z"/>
<path d="M80 5036 c0 -2 8 -10 18 -17 15 -13 16 -12 3 4 -13 16 -21 21 -21 13z"/>
<path d="M6962 5000 c0 -19 2 -27 5 -17 2 9 2 25 0 35 -3 9 -5 1 -5 -18z"/>
<path d="M63 5013 c4 -3 10 -3 14 0 3 4 0 7 -7 7 -7 0 -10 -3 -7 -7z"/>
<path d="M6971 4944 c0 -11 3 -14 6 -6 3 7 2 16 -1 19 -3 4 -6 -2 -5 -13z"/>
<path d="M6981 4904 c0 -11 3 -14 6 -6 3 7 2 16 -1 19 -3 4 -6 -2 -5 -13z"/>
<path d="M0 4871 c0 -5 5 -13 10 -16 5 -3 10 -2 10 4 0 5 -4 13 -10 16 -5 3 -10 2 -10 -4z"/>
<path d="M4265 2210 c-4 -7 17 -100 109 -485 43 -176 110 -462 151 -635 41 -173 84 -351 94 -395 12 -50 16 -84 10 -90 -5 -5 -9 -17 -9 -27 0 -12 -13 -21 -41 -30 -36 -10 -43 -10 -53 5 -12 15 -82 54 -676 369 -580 309 -1000 533 -1055 563 -159 87 -1342 715 -1359 721 -12 5 -17 4 -13 -2 3 -6 80 -334 171 -730 91 -395 170 -727 176 -736 10 -17 -11 -71 -32 -85 -7 -3 -68 -8 -137 -10 -69 -2 -126 -5 -128 -6 -3 -3 37 -178 43 -189 8 -13 5824 -10 5824 3 0 5 -23 108 -50 227 -28 119 -118 510 -201 867 -83 358 -154 653 -158 657 -8 9 -2661 16 -2666 8z"/>
<path d="M6990 4860 c0 -7 3 -10 7 -7 3 4 3 10 0 14 -4 3 -7 0 -7 -7z"/>
<path d="M7001 4814 c0 -11 3 -14 6 -6 3 7 2 16 -1 19 -3 4 -6 -2 -5 -13z"/>
<path d="M7012 4770 c0 -14 2 -19 5 -12 2 6 2 18 0 25 -3 6 -5 1 -5 -13z"/>
<path d="M7021 4724 c0 -11 3 -14 6 -6 3 7 2 16 -1 19 -3 4 -6 -2 -5 -13z"/>
<path d="M40 4720 c0 -7 3 -10 7 -7 3 4 3 10 0 14 -4 3 -7 0 -7 -7z"/>
<path d="M7030 4680 c0 -7 3 -10 7 -7 3 4 3 10 0 14 -4 3 -7 0 -7 -7z"/>
<path d="M7041 4634 c0 -11 3 -14 6 -6 3 7 2 16 -1 19 -3 4 -6 -2 -5 -13z"/>
<path d="M60 4630 c0 -7 3 -10 7 -7 3 4 3 10 0 14 -4 3 -7 0 -7 -7z"/>
<path d="M7061 4544 c0 -11 3 -14 6 -6 3 7 2 16 -1 19 -3 4 -6 -2 -5 -13z"/>
<path d="M80 4540 c0 -7 3 -10 7 -7 3 4 3 10 0 14 -4 3 -7 0 -7 -7z"/>
<path d="M7071 4504 c0 -11 3 -14 6 -6 3 7 2 16 -1 19 -3 4 -6 -2 -5 -13z"/>
<path d="M7081 4454 c0 -11 3 -14 6 -6 3 7 2 16 -1 19 -3 4 -6 -2 -5 -13z"/>
<path d="M100 4450 c0 -7 3 -10 7 -7 3 4 3 10 0 14 -4 3 -7 0 -7 -7z"/>
<path d="M7090 4410 c0 -7 3 -10 7 -7 3 4 3 10 0 14 -4 3 -7 0 -7 -7z"/>
<path d="M7101 4364 c0 -11 3 -14 6 -6 3 7 2 16 -1 19 -3 4 -6 -2 -5 -13z"/>
<path d="M7110 4320 c0 -7 3 -10 7 -7 3 4 3 10 0 14 -4 3 -7 0 -7 -7z"/>
<path d="M7121 4274 c0 -11 3 -14 6 -6 3 7 2 16 -1 19 -3 4 -6 -2 -5 -13z"/>
<path d="M140 4270 c0 -7 3 -10 7 -7 3 4 3 10 0 14 -4 3 -7 0 -7 -7z"/>
<path d="M7131 4224 c0 -11 3 -14 6 -6 3 7 2 16 -1 19 -3 4 -6 -2 -5 -13z"/>
<path d="M7141 4184 c0 -11 3 -14 6 -6 3 7 2 16 -1 19 -3 4 -6 -2 -5 -13z"/>
<path d="M7150 4140 c0 -7 3 -10 7 -7 3 4 3 10 0 14 -4 3 -7 0 -7 -7z"/>
<path d="M7161 4094 c0 -11 3 -14 6 -6 3 7 2 16 -1 19 -3 4 -6 -2 -5 -13z"/>
<path d="M7172 4050 c0 -14 2 -19 5 -12 2 6 2 18 0 25 -3 6 -5 1 -5 -13z"/>
<path d="M7181 4004 c0 -11 3 -14 6 -6 3 7 2 16 -1 19 -3 4 -6 -2 -5 -13z"/>
<path d="M7190 3960 c0 -7 3 -10 7 -7 3 4 3 10 0 14 -4 3 -7 0 -7 -7z"/>
<path d="M7201 3914 c0 -11 3 -14 6 -6 3 7 2 16 -1 19 -3 4 -6 -2 -5 -13z"/>
<path d="M220 3910 c0 -7 3 -10 7 -7 3 4 3 10 0 14 -4 3 -7 0 -7 -7z"/>
<path d="M7210 3870 c0 -7 3 -10 7 -7 3 4 3 10 0 14 -4 3 -7 0 -7 -7z"/>
<path d="M7221 3824 c0 -11 3 -14 6 -6 3 7 2 16 -1 19 -3 4 -6 -2 -5 -13z"/>
<path d="M7230 3780 c0 -7 3 -10 7 -7 3 4 3 10 0 14 -4 3 -7 0 -7 -7z"/>
<path d="M7241 3734 c0 -11 3 -14 6 -6 3 7 2 16 -1 19 -3 4 -6 -2 -5 -13z"/>
<path d="M270 3680 c0 -7 3 -10 7 -7 3 4 3 10 0 14 -4 3 -7 0 -7 -7z"/>
<path d="M7261 3644 c0 -11 3 -14 6 -6 3 7 2 16 -1 19 -3 4 -6 -2 -5 -13z"/>
<path d="M280 3640 c0 -7 3 -10 7 -7 3 4 3 10 0 14 -4 3 -7 0 -7 -7z"/>
<path d="M7270 3600 c0 -7 3 -10 7 -7 3 4 3 10 0 14 -4 3 -7 0 -7 -7z"/>
<path d="M7281 3554 c0 -11 3 -14 6 -6 3 7 2 16 -1 19 -3 4 -6 -2 -5 -13z"/>
<path d="M300 3550 c0 -7 3 -10 7 -7 3 4 3 10 0 14 -4 3 -7 0 -7 -7z"/>
<path d="M7291 3504 c0 -11 3 -14 6 -6 3 7 2 16 -1 19 -3 4 -6 -2 -5 -13z"/>
<path d="M7301 3464 c0 -11 3 -14 6 -6 3 7 2 16 -1 19 -3 4 -6 -2 -5 -13z"/>
<path d="M7311 3424 c0 -11 3 -14 6 -6 3 7 2 16 -1 19 -3 4 -6 -2 -5 -13z"/>
<path d="M7322 3380 c0 -14 2 -19 5 -12 2 6 2 18 0 25 -3 6 -5 1 -5 -13z"/>
<path d="M7332 3330 c0 -14 2 -19 5 -12 2 6 2 18 0 25 -3 6 -5 1 -5 -13z"/>
<path d="M7342 3280 c0 -14 2 -19 5 -12 2 6 2 18 0 25 -3 6 -5 1 -5 -13z"/>
<path d="M360 3280 c0 -7 3 -10 7 -7 3 4 3 10 0 14 -4 3 -7 0 -7 -7z"/>
<path d="M7350 3240 c0 -7 3 -10 7 -7 3 4 3 10 0 14 -4 3 -7 0 -7 -7z"/>
<path d="M7361 3194 c0 -11 3 -14 6 -6 3 7 2 16 -1 19 -3 4 -6 -2 -5 -13z"/>
<path d="M380 3190 c0 -7 3 -10 7 -7 3 4 3 10 0 14 -4 3 -7 0 -7 -7z"/>
<path d="M7381 3104 c0 -11 3 -14 6 -6 3 7 2 16 -1 19 -3 4 -6 -2 -5 -13z"/>
<path d="M400 3100 c0 -7 3 -10 7 -7 3 4 3 10 0 14 -4 3 -7 0 -7 -7z"/>
<path d="M7391 3064 c0 -11 3 -14 6 -6 3 7 2 16 -1 19 -3 4 -6 -2 -5 -13z"/>
<path d="M7401 3014 c0 -11 3 -14 6 -6 3 7 2 16 -1 19 -3 4 -6 -2 -5 -13z"/>
<path d="M7421 2924 c0 -11 3 -14 6 -6 3 7 2 16 -1 19 -3 4 -6 -2 -5 -13z"/>
<path d="M440 2920 c0 -7 3 -10 7 -7 3 4 3 10 0 14 -4 3 -7 0 -7 -7z"/>
<path d="M7430 2880 c0 -7 3 -10 7 -7 3 4 3 10 0 14 -4 3 -7 0 -7 -7z"/>
<path d="M7441 2834 c0 -11 3 -14 6 -6 3 7 2 16 -1 19 -3 4 -6 -2 -5 -13z"/>
<path d="M7452 2795 c0 -11 4 -31 8 -45 6 -20 8 -21 8 -5 0 11 -4 31 -8 45 -6 20 -8 21 -8 5z"/>
<path d="M7470 2700 c0 -7 3 -10 7 -7 3 4 3 10 0 14 -4 3 -7 0 -7 -7z"/>
<path d="M7481 2654 c0 -11 3 -14 6 -6 3 7 2 16 -1 19 -3 4 -6 -2 -5 -13z"/>
<path d="M7491 2604 c0 -11 3 -14 6 -6 3 7 2 16 -1 19 -3 4 -6 -2 -5 -13z"/>
<path d="M7501 2564 c0 -11 3 -14 6 -6 3 7 2 16 -1 19 -3 4 -6 -2 -5 -13z"/>
<path d="M7511 2524 c0 -11 3 -14 6 -6 3 7 2 16 -1 19 -3 4 -6 -2 -5 -13z"/>
<path d="M7521 2474 c0 -11 3 -14 6 -6 3 7 2 16 -1 19 -3 4 -6 -2 -5 -13z"/>
<path d="M7530 2430 c0 -7 3 -10 7 -7 3 4 3 10 0 14 -4 3 -7 0 -7 -7z"/>
<path d="M7541 2384 c0 -11 3 -14 6 -6 3 7 2 16 -1 19 -3 4 -6 -2 -5 -13z"/>
<path d="M7550 2340 c0 -7 3 -10 7 -7 3 4 3 10 0 14 -4 3 -7 0 -7 -7z"/>
<path d="M7561 2294 c0 -11 3 -14 6 -6 3 7 2 16 -1 19 -3 4 -6 -2 -5 -13z"/>
<path d="M7570 2250 c0 -7 3 -10 7 -7 3 4 3 10 0 14 -4 3 -7 0 -7 -7z"/>
<path d="M7581 2204 c0 -11 3 -14 6 -6 3 7 2 16 -1 19 -3 4 -6 -2 -5 -13z"/>
<path d="M600 2200 c0 -7 3 -10 7 -7 3 4 3 10 0 14 -4 3 -7 0 -7 -7z"/>
<path d="M7591 2164 c0 -11 3 -14 6 -6 3 7 2 16 -1 19 -3 4 -6 -2 -5 -13z"/>
<path d="M7601 2114 c0 -11 3 -14 6 -6 3 7 2 16 -1 19 -3 4 -6 -2 -5 -13z"/>
<path d="M7611 2064 c0 -11 3 -14 6 -6 3 7 2 16 -1 19 -3 4 -6 -2 -5 -13z"/>
<path d="M7621 2024 c0 -11 3 -14 6 -6 3 7 2 16 -1 19 -3 4 -6 -2 -5 -13z"/>
<path d="M7631 1984 c0 -11 3 -14 6 -6 3 7 2 16 -1 19 -3 4 -6 -2 -5 -13z"/>
<path d="M7642 1940 c0 -14 2 -19 5 -12 2 6 2 18 0 25 -3 6 -5 1 -5 -13z"/>
<path d="M7650 1890 c0 -7 3 -10 7 -7 3 4 3 10 0 14 -4 3 -7 0 -7 -7z"/>
<path d="M7661 1844 c0 -11 3 -14 6 -6 3 7 2 16 -1 19 -3 4 -6 -2 -5 -13z"/>
<path d="M7670 1800 c0 -7 3 -10 7 -7 3 4 3 10 0 14 -4 3 -7 0 -7 -7z"/>
<path d="M7681 1754 c0 -11 3 -14 6 -6 3 7 2 16 -1 19 -3 4 -6 -2 -5 -13z"/>
<path d="M700 1750 c0 -7 3 -10 7 -7 3 4 3 10 0 14 -4 3 -7 0 -7 -7z"/>
<path d="M7701 1664 c0 -11 3 -14 6 -6 3 7 2 16 -1 19 -3 4 -6 -2 -5 -13z"/>
<path d="M7711 1624 c0 -11 3 -14 6 -6 3 7 2 16 -1 19 -3 4 -6 -2 -5 -13z"/>
<path d="M7721 1574 c0 -11 3 -14 6 -6 3 7 2 16 -1 19 -3 4 -6 -2 -5 -13z"/>
<path d="M7731 1534 c0 -11 3 -14 6 -6 3 7 2 16 -1 19 -3 4 -6 -2 -5 -13z"/>
<path d="M7741 1484 c0 -11 3 -14 6 -6 3 7 2 16 -1 19 -3 4 -6 -2 -5 -13z"/>
<path d="M7750 1440 c0 -7 3 -10 7 -7 3 4 3 10 0 14 -4 3 -7 0 -7 -7z"/>
<path d="M7761 1394 c0 -11 3 -14 6 -6 3 7 2 16 -1 19 -3 4 -6 -2 -5 -13z"/>
<path d="M7772 1355 c0 -11 4 -31 8 -45 6 -20 8 -21 8 -5 0 11 -4 31 -8 45 -6 20 -8 21 -8 5z"/>
<path d="M7791 1264 c0 -11 3 -14 6 -6 3 7 2 16 -1 19 -3 4 -6 -2 -5 -13z"/>
<path d="M7801 1214 c0 -11 3 -14 6 -6 3 7 2 16 -1 19 -3 4 -6 -2 -5 -13z"/>
<path d="M7811 1174 c0 -11 3 -14 6 -6 3 7 2 16 -1 19 -3 4 -6 -2 -5 -13z"/>
<path d="M7821 1124 c0 -11 3 -14 6 -6 3 7 2 16 -1 19 -3 4 -6 -2 -5 -13z"/>
<path d="M7831 1084 c0 -11 3 -14 6 -6 3 7 2 16 -1 19 -3 4 -6 -2 -5 -13z"/>
<path d="M7841 1034 c0 -11 3 -14 6 -6 3 7 2 16 -1 19 -3 4 -6 -2 -5 -13z"/>
<path d="M7850 990 c0 -7 3 -10 7 -7 3 4 3 10 0 14 -4 3 -7 0 -7 -7z"/>
<path d="M7861 944 c0 -11 3 -14 6 -6 3 7 2 16 -1 19 -3 4 -6 -2 -5 -13z"/>
<path d="M7870 900 c0 -7 3 -10 7 -7 3 4 3 10 0 14 -4 3 -7 0 -7 -7z"/>
<path d="M7880 860 c0 -7 3 -10 7 -7 3 4 3 10 0 14 -4 3 -7 0 -7 -7z"/>
<path d="M7891 814 c0 -11 3 -14 6 -6 3 7 2 16 -1 19 -3 4 -6 -2 -5 -13z"/>
<path d="M7901 764 c0 -11 3 -14 6 -6 3 7 2 16 -1 19 -3 4 -6 -2 -5 -13z"/>
<path d="M7911 724 c0 -11 3 -14 6 -6 3 7 2 16 -1 19 -3 4 -6 -2 -5 -13z"/>
<path d="M7921 674 c0 -11 3 -14 6 -6 3 7 2 16 -1 19 -3 4 -6 -2 -5 -13z"/>
<path d="M7932 630 c0 -14 2 -19 5 -12 2 6 2 18 0 25 -3 6 -5 1 -5 -13z"/>
<path d="M7941 584 c0 -11 3 -14 6 -6 3 7 2 16 -1 19 -3 4 -6 -2 -5 -13z"/>
<path d="M7951 544 c0 -11 3 -14 6 -6 3 7 2 16 -1 19 -3 4 -6 -2 -5 -13z"/>
<path d="M7962 500 c0 -14 2 -19 5 -12 2 6 2 18 0 25 -3 6 -5 1 -5 -13z"/>
<path d="M7971 454 c0 -11 3 -14 6 -6 3 7 2 16 -1 19 -3 4 -6 -2 -5 -13z"/>
<path d="M7981 404 c0 -11 3 -14 6 -6 3 7 2 16 -1 19 -3 4 -6 -2 -5 -13z"/>
<path d="M7991 364 c0 -11 3 -14 6 -6 3 7 2 16 -1 19 -3 4 -6 -2 -5 -13z"/>
<path d="M1020 320 c0 -7 3 -10 7 -7 3 4 3 10 0 14 -4 3 -7 0 -7 -7z"/>
<path d="M8001 314 c0 -11 3 -14 6 -6 3 7 2 16 -1 19 -3 4 -6 -2 -5 -13z"/>
<path d="M8011 264 c0 -11 3 -14 6 -6 3 7 2 16 -1 19 -3 4 -6 -2 -5 -13z"/>
<path d="M8020 218 c0 -16 5 -28 10 -28 13 0 13 20 0 40 -8 12 -10 9 -10 -12z"/>
<path d="M8015 160 c-3 -6 1 -7 9 -4 18 7 21 14 7 14 -6 0 -13 -4 -16 -10z"/>
<path d="M8011 124 c0 -11 3 -14 6 -6 3 7 2 16 -1 19 -3 4 -6 -2 -5 -13z"/>
</g>
<g id="layer119" fill="#c2c1c0" stroke="none">
<path d="M6935 5080 c10 -11 20 -20 22 -20 2 0 -2 9 -9 20 -7 11 -17 20 -22 20 -5 0 -1 -9 9 -20z"/>
<path d="M6970 4950 c0 -7 3 -10 7 -7 3 4 3 10 0 14 -4 3 -7 0 -7 -7z"/>
<path d="M1429 2188 c10 -27 36 -35 44 -13 5 10 0 15 -13 15 -11 0 -20 5 -20 10 0 6 -4 10 -10 10 -6 0 -6 -9 -1 -22z"/>
<path d="M4578 2153 c7 -3 16 -2 19 1 4 3 -2 6 -13 5 -11 0 -14 -3 -6 -6z"/>
<path d="M4618 2153 c7 -3 16 -2 19 1 4 3 -2 6 -13 5 -11 0 -14 -3 -6 -6z"/>
<path d="M4658 2153 c7 -3 16 -2 19 1 4 3 -2 6 -13 5 -11 0 -14 -3 -6 -6z"/>
<path d="M4698 2153 c7 -3 16 -2 19 1 4 3 -2 6 -13 5 -11 0 -14 -3 -6 -6z"/>
<path d="M4738 2153 c7 -3 16 -2 19 1 4 3 -2 6 -13 5 -11 0 -14 -3 -6 -6z"/>
<path d="M4778 2153 c7 -3 16 -2 19 1 4 3 -2 6 -13 5 -11 0 -14 -3 -6 -6z"/>
<path d="M4818 2153 c7 -3 16 -2 19 1 4 3 -2 6 -13 5 -11 0 -14 -3 -6 -6z"/>
<path d="M4858 2153 c7 -3 16 -2 19 1 4 3 -2 6 -13 5 -11 0 -14 -3 -6 -6z"/>
<path d="M4898 2153 c7 -3 16 -2 19 1 4 3 -2 6 -13 5 -11 0 -14 -3 -6 -6z"/>
<path d="M4938 2153 c7 -3 16 -2 19 1 4 3 -2 6 -13 5 -11 0 -14 -3 -6 -6z"/>
<path d="M4978 2153 c7 -3 16 -2 19 1 4 3 -2 6 -13 5 -11 0 -14 -3 -6 -6z"/>
<path d="M5018 2153 c7 -3 16 -2 19 1 4 3 -2 6 -13 5 -11 0 -14 -3 -6 -6z"/>
<path d="M5058 2153 c7 -3 16 -2 19 1 4 3 -2 6 -13 5 -11 0 -14 -3 -6 -6z"/>
<path d="M5098 2153 c7 -3 16 -2 19 1 4 3 -2 6 -13 5 -11 0 -14 -3 -6 -6z"/>
<path d="M5138 2153 c7 -3 16 -2 19 1 4 3 -2 6 -13 5 -11 0 -14 -3 -6 -6z"/>
<path d="M5178 2153 c7 -3 16 -2 19 1 4 3 -2 6 -13 5 -11 0 -14 -3 -6 -6z"/>
<path d="M5218 2153 c7 -3 16 -2 19 1 4 3 -2 6 -13 5 -11 0 -14 -3 -6 -6z"/>
<path d="M5258 2153 c7 -3 16 -2 19 1 4 3 -2 6 -13 5 -11 0 -14 -3 -6 -6z"/>
<path d="M5298 2153 c7 -3 16 -2 19 1 4 3 -2 6 -13 5 -11 0 -14 -3 -6 -6z"/>
<path d="M5338 2153 c7 -3 16 -2 19 1 4 3 -2 6 -13 5 -11 0 -14 -3 -6 -6z"/>
<path d="M5378 2153 c7 -3 16 -2 19 1 4 3 -2 6 -13 5 -11 0 -14 -3 -6 -6z"/>
<path d="M5418 2153 c7 -3 16 -2 19 1 4 3 -2 6 -13 5 -11 0 -14 -3 -6 -6z"/>
<path d="M5458 2153 c7 -3 16 -2 19 1 4 3 -2 6 -13 5 -11 0 -14 -3 -6 -6z"/>
<path d="M5498 2153 c7 -3 16 -2 19 1 4 3 -2 6 -13 5 -11 0 -14 -3 -6 -6z"/>
<path d="M5538 2153 c7 -3 16 -2 19 1 4 3 -2 6 -13 5 -11 0 -14 -3 -6 -6z"/>
<path d="M5578 2153 c7 -3 16 -2 19 1 4 3 -2 6 -13 5 -11 0 -14 -3 -6 -6z"/>
<path d="M5618 2153 c7 -3 16 -2 19 1 4 3 -2 6 -13 5 -11 0 -14 -3 -6 -6z"/>
<path d="M5658 2153 c7 -3 16 -2 19 1 4 3 -2 6 -13 5 -11 0 -14 -3 -6 -6z"/>
<path d="M5698 2153 c7 -3 16 -2 19 1 4 3 -2 6 -13 5 -11 0 -14 -3 -6 -6z"/>
<path d="M5738 2153 c7 -3 16 -2 19 1 4 3 -2 6 -13 5 -11 0 -14 -3 -6 -6z"/>
<path d="M5778 2153 c7 -3 16 -2 19 1 4 3 -2 6 -13 5 -11 0 -14 -3 -6 -6z"/>
<path d="M5818 2153 c7 -3 16 -2 19 1 4 3 -2 6 -13 5 -11 0 -14 -3 -6 -6z"/>
<path d="M5858 2153 c7 -3 16 -2 19 1 4 3 -2 6 -13 5 -11 0 -14 -3 -6 -6z"/>
<path d="M5898 2153 c7 -3 16 -2 19 1 4 3 -2 6 -13 5 -11 0 -14 -3 -6 -6z"/>
<path d="M5938 2153 c7 -3 16 -2 19 1 4 3 -2 6 -13 5 -11 0 -14 -3 -6 -6z"/>
<path d="M5978 2153 c7 -3 16 -2 19 1 4 3 -2 6 -13 5 -11 0 -14 -3 -6 -6z"/>
<path d="M6018 2153 c7 -3 16 -2 19 1 4 3 -2 6 -13 5 -11 0 -14 -3 -6 -6z"/>
<path d="M6058 2153 c7 -3 16 -2 19 1 4 3 -2 6 -13 5 -11 0 -14 -3 -6 -6z"/>
<path d="M6098 2153 c7 -3 16 -2 19 1 4 3 -2 6 -13 5 -11 0 -14 -3 -6 -6z"/>
<path d="M6138 2153 c7 -3 16 -2 19 1 4 3 -2 6 -13 5 -11 0 -14 -3 -6 -6z"/>
<path d="M6178 2153 c7 -3 16 -2 19 1 4 3 -2 6 -13 5 -11 0 -14 -3 -6 -6z"/>
<path d="M6218 2153 c7 -3 16 -2 19 1 4 3 -2 6 -13 5 -11 0 -14 -3 -6 -6z"/>
<path d="M6258 2153 c7 -3 16 -2 19 1 4 3 -2 6 -13 5 -11 0 -14 -3 -6 -6z"/>
<path d="M6298 2153 c7 -3 16 -2 19 1 4 3 -2 6 -13 5 -11 0 -14 -3 -6 -6z"/>
<path d="M6338 2153 c7 -3 16 -2 19 1 4 3 -2 6 -13 5 -11 0 -14 -3 -6 -6z"/>
<path d="M6378 2153 c7 -3 16 -2 19 1 4 3 -2 6 -13 5 -11 0 -14 -3 -6 -6z"/>
<path d="M6418 2153 c7 -3 16 -2 19 1 4 3 -2 6 -13 5 -11 0 -14 -3 -6 -6z"/>
<path d="M6458 2153 c7 -3 16 -2 19 1 4 3 -2 6 -13 5 -11 0 -14 -3 -6 -6z"/>
<path d="M6498 2153 c7 -3 16 -2 19 1 4 3 -2 6 -13 5 -11 0 -14 -3 -6 -6z"/>
<path d="M6538 2153 c7 -3 16 -2 19 1 4 3 -2 6 -13 5 -11 0 -14 -3 -6 -6z"/>
<path d="M6580 2155 c8 -2 32 -6 53 -10 23 -4 37 -11 37 -20 0 -9 9 -15 23 -15 42 0 67 12 67 31 0 17 -8 19 -97 18 -54 -1 -91 -3 -83 -4z"/>
<path d="M6790 2150 c0 -5 7 -10 15 -10 8 0 15 5 15 10 0 6 -7 10 -15 10 -8 0 -15 -4 -15 -10z"/>
<path d="M1441 2134 c0 -11 3 -14 6 -6 3 7 2 16 -1 19 -3 4 -6 -2 -5 -13z"/>
<path d="M6692 2078 c-10 -10 -245 -14 -1080 -18 -587 -3 -1052 -8 -1033 -12 18 -5 487 -8 1042 -8 890 0 1009 -2 1009 -15 0 -13 -120 -15 -1019 -15 -561 0 -1026 -3 -1035 -6 -9 -3 -16 -12 -16 -20 0 -16 -30 -33 -49 -26 -17 6 -31 -15 -31 -47 0 -21 -3 -23 -32 -17 -21 4 -28 3 -19 -3 8 -5 12 -18 9 -28 -3 -11 1 -31 8 -44 18 -33 17 -36 -8 -44 -14 -4 -18 -8 -10 -12 6 -2 12 -13 12 -24 0 -22 -35 -60 -46 -51 -5 4 -2 -1 5 -10 7 -10 22 -18 32 -18 17 0 19 -6 15 -46 -4 -39 -1 -47 15 -51 10 -3 19 -9 19 -12 0 -14 -13 -21 -25 -13 -6 4 -3 -1 8 -10 12 -12 28 -15 47 -12 22 5 29 2 34 -14 4 -10 4 -27 0 -36 -5 -12 0 -19 14 -23 25 -6 41 -61 22 -73 -9 -6 -9 -13 1 -31 l14 -24 3 23 c4 28 15 28 45 -1 31 -28 36 -104 8 -124 -14 -9 -18 -24 -16 -55 2 -47 24 -118 37 -118 4 0 9 -15 9 -32 1 -18 3 -25 6 -15 2 9 10 17 17 17 19 0 28 -84 16 -154 -8 -47 -6 -72 7 -122 16 -59 33 -77 33 -34 0 11 9 24 20 30 14 7 348 11 1093 11 l1072 0 7 -23 c3 -13 6 -40 7 -60 1 -37 2 -38 36 -38 24 0 35 -5 35 -15 0 -9 9 -15 24 -15 45 0 86 -13 86 -26 0 -20 30 -17 46 4 18 23 17 33 -2 25 -11 -4 -22 1 -30 12 -18 24 -18 55 -1 55 16 0 18 68 2 74 -13 5 -19 116 -6 116 4 0 3 18 -3 41 -7 28 -7 42 0 47 17 11 24 41 12 48 -7 5 -8 2 -3 -6 5 -9 2 -10 -12 -6 -14 5 -21 -1 -30 -24 -6 -17 -18 -30 -27 -30 -19 0 -21 31 -4 48 18 18 5 23 -23 8 -24 -12 -25 -12 -21 10 5 26 -12 33 -22 9 -7 -18 -57 -20 -74 -3 -8 8 -12 53 -12 135 0 119 1 124 23 132 12 5 32 5 43 0 18 -6 23 -4 26 15 4 19 1 22 -14 18 -15 -4 -18 2 -18 33 0 28 5 38 20 42 23 6 27 23 5 23 -8 0 -15 7 -15 15 0 11 9 14 32 13 28 -3 34 1 36 20 2 12 8 22 13 22 5 0 9 7 9 15 0 12 -11 15 -55 11 -43 -4 -55 -1 -55 10 0 8 5 14 10 14 6 0 10 9 10 20 0 11 5 20 10 20 12 0 12 47 0 75 -8 19 -9 19 -9 -2 -1 -13 -5 -23 -11 -23 -5 0 -10 -10 -11 -22 0 -20 -2 -19 -11 7 -6 16 -17 35 -23 42 -7 6 -10 24 -7 38 3 17 -1 30 -9 36 -21 13 -39 11 -39 -6 0 -8 -4 -15 -10 -15 -20 0 -50 35 -50 60 -1 27 -21 60 -37 60 -6 0 -14 17 -17 38 -11 62 -17 72 -37 72 -15 0 -19 7 -18 33 0 17 4 41 9 52 7 19 9 18 19 -7 12 -31 28 -36 37 -13 4 8 13 15 21 15 10 0 13 6 9 16 -3 9 -6 24 -6 35 0 13 -7 19 -24 19 -13 0 -26 7 -30 15 -7 18 -47 20 -64 3z m-2192 -253 c0 -8 -7 -15 -15 -15 -8 0 -15 7 -15 15 0 8 7 15 15 15 8 0 15 -7 15 -15z m-17 -122 c11 -10 -13 -33 -34 -33 -21 0 -26 26 -6 33 18 8 33 8 40 0z m2416 -55 c10 -28 3 -58 -14 -58 -15 0 -25 33 -18 60 7 26 22 25 32 -2z m-69 -28 c0 -5 7 -10 16 -10 12 0 15 -6 10 -22 -3 -13 -6 -29 -6 -35 0 -7 -9 -13 -20 -13 -22 0 -28 35 -7 43 7 3 5 6 -5 6 -22 1 -25 41 -3 41 8 0 15 -4 15 -10z m100 -75 c0 -8 -7 -15 -15 -15 -8 0 -15 7 -15 15 0 8 7 15 15 15 8 0 15 -7 15 -15z m-2340 -60 c0 -8 -7 -15 -15 -15 -8 0 -15 7 -15 15 0 8 7 15 15 15 8 0 15 -7 15 -15z m2465 -15 c3 -5 0 -10 -9 -10 -8 0 -22 -3 -30 -6 -12 -5 -15 -2 -10 10 7 18 39 22 49 6z m-2355 -315 c0 -8 -7 -15 -15 -15 -8 0 -15 7 -15 15 0 8 7 15 15 15 8 0 15 -7 15 -15z"/>
<path d="M1686 2045 c-3 -9 0 -15 9 -15 8 0 15 7 15 15 0 8 -4 15 -9 15 -5 0 -11 -7 -15 -15z"/>
<path d="M4331 1904 c0 -11 3 -14 6 -6 3 7 2 16 -1 19 -3 4 -6 -2 -5 -13z"/>
<path d="M6945 1890 c-3 -5 1 -10 10 -10 9 0 13 5 10 10 -3 6 -8 10 -10 10 -2 0 -7 -4 -10 -10z"/>
<path d="M4390 1869 c0 -5 5 -7 10 -4 6 3 10 8 10 11 0 2 -4 4 -10 4 -5 0 -10 -5 -10 -11z"/>
<path d="M2046 1855 c-3 -9 0 -15 9 -15 8 0 15 7 15 15 0 8 -4 15 -9 15 -5 0 -11 -7 -15 -15z"/>
<path d="M1660 1833 c0 -18 -6 -23 -27 -24 -16 0 -22 -3 -15 -6 18 -7 15 -33 -5 -34 -11 0 -13 -3 -5 -6 6 -2 12 -20 12 -38 0 -18 -6 -36 -12 -38 -10 -4 -10 -6 -1 -6 6 -1 15 4 18 9 13 22 34 9 37 -22 3 -33 3 -33 58 -33 l55 0 1 -48 c2 -43 0 -48 -16 -44 -20 5 -30 -11 -30 -47 0 -12 -7 -33 -17 -46 -9 -14 -10 -19 -3 -12 8 6 22 12 31 12 9 0 19 9 22 21 7 28 41 21 45 -9 3 -17 -2 -25 -17 -29 -12 -3 -21 -11 -21 -18 0 -7 -4 -15 -9 -17 -5 -1 -12 -15 -16 -29 -5 -19 -2 -28 9 -32 11 -4 19 4 28 28 6 19 18 35 25 35 17 0 16 -57 -1 -89 -9 -16 -11 -35 -6 -58 5 -18 8 -81 9 -139 1 -112 8 -174 21 -174 4 0 6 22 4 50 -3 40 -1 50 11 50 8 0 15 9 15 20 0 11 -7 20 -15 20 -12 0 -15 13 -15 55 0 30 4 55 9 55 5 0 12 16 15 35 5 25 12 35 25 35 11 0 21 -6 24 -13 9 -23 -3 -231 -13 -241 -6 -6 -10 -18 -10 -27 0 -9 -7 -19 -15 -23 -8 -3 -15 -12 -15 -20 0 -11 8 -13 35 -9 35 6 35 5 35 -31 0 -44 15 -48 24 -6 3 17 12 30 20 30 15 0 20 -18 30 -108 5 -52 5 -51 53 -63 55 -13 1513 -12 1550 1 28 10 29 13 24 53 -5 35 -11 44 -38 57 -40 18 -47 59 -10 61 19 1 20 2 2 6 -28 8 -65 34 -65 47 0 7 -18 11 -45 10 -41 -1 -44 1 -30 16 8 9 15 22 15 28 0 16 -103 34 -207 36 l-93 2 -6 -35 c-3 -20 -6 -43 -7 -51 -1 -8 -11 -16 -21 -18 -16 -3 -18 1 -14 27 3 18 1 34 -4 37 -4 3 -8 14 -8 25 0 14 7 19 25 19 14 0 25 5 25 10 0 6 -6 10 -14 10 -7 0 -19 6 -26 14 -18 23 -63 0 -50 -25 16 -28 12 -39 -13 -39 -24 0 -67 37 -67 58 0 7 -4 12 -10 12 -5 0 -10 7 -10 16 0 11 6 15 20 11 13 -3 20 0 20 9 0 17 26 19 33 2 3 -8 6 -6 6 5 1 9 -4 17 -10 17 -7 0 -18 8 -25 18 -12 15 -12 15 -7 -5 4 -17 1 -23 -10 -23 -8 0 -17 4 -19 10 -1 5 -41 10 -88 11 -88 2 -132 15 -149 47 -15 29 -23 99 -12 106 15 10 -20 43 -40 38 -11 -2 -15 -11 -12 -23 4 -14 0 -19 -17 -19 -17 0 -21 5 -18 24 1 13 -4 31 -12 41 -14 17 -15 16 -20 -6 -4 -17 -14 -25 -33 -27 -17 -2 -27 1 -27 10 0 7 -9 19 -19 25 -14 9 -21 26 -23 55 l-3 43 -65 5 c-36 3 -71 9 -78 13 -8 5 -19 4 -28 -4 -18 -14 -170 -7 -202 10 -31 16 -44 46 -46 102 -1 40 -4 49 -19 49 -10 0 -20 7 -24 15 -4 13 -15 14 -49 9 -37 -5 -44 -4 -44 10 0 9 -4 16 -10 16 -17 0 -11 28 8 33 16 4 16 4 -2 12 -10 5 -21 4 -25 -3 -9 -15 -55 24 -48 42 4 11 -13 15 -85 18 -63 3 -92 8 -99 19 -7 11 -9 9 -9 -8z m70 -168 c0 -8 -9 -15 -20 -15 -11 0 -20 7 -20 15 0 8 9 15 20 15 11 0 20 -7 20 -15z m1503 -654 c3 -11 17 -22 36 -26 17 -4 31 -11 31 -16 0 -5 8 -10 18 -10 9 -1 -14 -5 -51 -10 -61 -8 -70 -7 -89 11 -12 11 -16 20 -10 20 7 0 17 11 22 25 11 30 36 33 43 6z m270 -61 c19 -22 22 -40 7 -40 -24 0 -60 25 -60 42 0 24 31 23 53 -2z"/>
<path d="M4390 1825 c-10 -12 -10 -15 3 -15 8 0 20 7 27 15 10 12 10 15 -3 15 -8 0 -20 -7 -27 -15z"/>
<path d="M6830 1834 c0 -3 7 -12 15 -20 16 -17 18 -14 9 10 -6 15 -24 23 -24 10z"/>
<path d="M6863 1833 c4 -3 10 -3 14 0 3 4 0 7 -7 7 -7 0 -10 -3 -7 -7z"/>
<path d="M4350 1820 c0 -7 3 -10 7 -7 3 4 3 10 0 14 -4 3 -7 0 -7 -7z"/>
<path d="M6895 1820 c3 -5 8 -10 11 -10 3 0 2 5 -1 10 -3 6 -8 10 -11 10 -3 0 -2 -4 1 -10z"/>
<path d="M6988 1823 c7 -3 16 -2 19 1 4 3 -2 6 -13 5 -11 0 -14 -3 -6 -6z"/>
<path d="M7020 1800 c0 -7 3 -10 7 -7 3 4 3 10 0 14 -4 3 -7 0 -7 -7z"/>
<path d="M1583 1783 c4 -3 10 -3 14 0 3 4 0 7 -7 7 -7 0 -10 -3 -7 -7z"/>
<path d="M2160 1772 c0 -4 11 -12 25 -19 14 -6 25 -8 25 -4 0 4 -11 13 -25 19 -14 6 -25 8 -25 4z"/>
<path d="M4385 1770 c3 -5 11 -10 16 -10 6 0 7 5 4 10 -3 6 -11 10 -16 10 -6 0 -7 -4 -4 -10z"/>
<path d="M2293 1747 c19 -16 23 -37 6 -37 -5 0 -8 -4 -4 -10 7 -12 32 -2 39 16 3 9 -6 20 -27 29 -24 12 -27 12 -14 2z"/>
<path d="M2128 1743 c7 -3 16 -2 19 1 4 3 -2 6 -13 5 -11 0 -14 -3 -6 -6z"/>
<path d="M7008 1743 c7 -3 16 -2 19 1 4 3 -2 6 -13 5 -11 0 -14 -3 -6 -6z"/>
<path d="M2090 1726 c0 -18 34 -38 70 -43 42 -6 49 0 26 22 -15 15 -96 32 -96 21z"/>
<path d="M7040 1720 c0 -7 3 -10 7 -7 3 4 3 10 0 14 -4 3 -7 0 -7 -7z"/>
<path d="M2350 1705 c0 -8 -6 -15 -12 -16 -14 0 21 -17 38 -18 24 -2 22 27 -2 38 -19 9 -24 8 -24 -4z"/>
<path d="M2475 1634 c0 -13 6 -24 13 -24 6 0 12 6 12 14 0 7 -6 18 -12 24 -10 8 -13 4 -13 -14z"/>
<path d="M6983 1653 c4 -3 10 -3 14 0 3 4 0 7 -7 7 -7 0 -10 -3 -7 -7z"/>
<path d="M2228 1643 c7 -3 16 -2 19 1 4 3 -2 6 -13 5 -11 0 -14 -3 -6 -6z"/>
<path d="M2703 1505 c-9 -10 -3 -17 28 -31 34 -15 42 -15 49 -4 6 9 2 17 -13 25 -41 21 -52 23 -64 10z"/>
<path d="M1621 1485 c9 -11 19 -27 22 -35 3 -8 5 1 5 20 0 19 -2 29 -5 22 -4 -10 -8 -10 -21 0 -16 12 -16 11 -1 -7z"/>
<path d="M2832 1434 c-7 -8 -10 -19 -7 -24 8 -13 65 -13 65 0 0 6 5 10 11 10 6 0 9 -9 6 -20 -6 -23 18 -28 26 -6 3 8 -9 21 -33 35 -44 25 -51 25 -68 5z m38 -9 c0 -8 -7 -15 -15 -15 -13 0 -14 3 -3 15 16 18 18 18 18 0z"/>
<path d="M1723 1423 c4 -3 10 -3 14 0 3 4 0 7 -7 7 -7 0 -10 -3 -7 -7z"/>
<path d="M2780 1420 c0 -5 5 -10 11 -10 5 0 7 5 4 10 -3 6 -8 10 -11 10 -2 0 -4 -4 -4 -10z"/>
<path d="M4500 1412 c0 -11 7 -22 15 -26 8 -3 15 -1 15 5 0 6 -7 17 -15 25 -13 14 -15 13 -15 -4z"/>
<path d="M7070 1390 c0 -11 4 -20 9 -20 5 0 7 9 4 20 -3 11 -7 20 -9 20 -2 0 -4 -9 -4 -20z"/>
<path d="M2737 1381 c3 -11 13 -21 24 -24 15 -4 19 0 19 19 0 19 -5 24 -24 24 -19 0 -23 -4 -19 -19z"/>
<path d="M1670 1360 c0 -7 3 -10 7 -7 3 4 3 10 0 14 -4 3 -7 0 -7 -7z"/>
<path d="M2990 1359 c0 -7 -12 -10 -29 -7 -17 2 -28 1 -25 -4 3 -4 10 -8 16 -8 6 0 20 -7 30 -17 11 -9 18 -11 18 -5 0 7 -5 12 -11 12 -6 0 -3 7 5 16 19 18 20 24 6 24 -5 0 -10 -5 -10 -11z"/>
<path d="M4520 1360 c0 -7 3 -10 7 -7 3 4 3 10 0 14 -4 3 -7 0 -7 -7z"/>
<path d="M2825 1310 c3 -5 13 -10 21 -10 8 0 12 5 9 10 -3 6 -13 10 -21 10 -8 0 -12 -4 -9 -10z"/>
<path d="M7095 1300 c-11 -18 5 -31 21 -16 8 8 14 17 14 20 0 10 -28 7 -35 -4z"/>
<path d="M7140 1280 c0 -7 3 -10 7 -7 3 4 3 10 0 14 -4 3 -7 0 -7 -7z"/>
<path d="M4591 1254 c0 -11 3 -14 6 -6 3 7 2 16 -1 19 -3 4 -6 -2 -5 -13z"/>
<path d="M7128 1223 c7 -3 16 -2 19 1 4 3 -2 6 -13 5 -11 0 -14 -3 -6 -6z"/>
<path d="M3042 1170 c0 -14 2 -19 5 -12 2 6 2 18 0 25 -3 6 -5 1 -5 -13z"/>
<path d="M3437 1120 c-5 -21 0 -30 20 -30 17 0 17 36 -1 43 -8 3 -16 -2 -19 -13z"/>
<path d="M3005 1120 c3 -5 8 -10 11 -10 2 0 4 5 4 10 0 6 -5 10 -11 10 -5 0 -7 -4 -4 -10z"/>
<path d="M3508 1098 c32 -16 29 -41 -5 -35 -16 2 -22 2 -15 0 6 -3 12 -8 12 -12 0 -5 11 -6 25 -3 33 6 33 35 0 50 -33 15 -48 14 -17 0z"/>
<path d="M7186 1087 c3 -10 9 -15 12 -12 3 3 0 11 -7 18 -10 9 -11 8 -5 -6z"/>
<path d="M7160 1045 c0 -9 6 -12 15 -9 8 4 15 10 15 15 0 5 -7 9 -15 9 -8 0 -15 -7 -15 -15z"/>
<path d="M7200 1030 c0 -7 3 -10 7 -7 3 4 3 10 0 14 -4 3 -7 0 -7 -7z"/>
<path d="M7196 991 c-19 -7 -19 -8 2 -13 15 -4 22 -2 22 8 0 8 -1 14 -2 13 -2 0 -12 -4 -22 -8z"/>
<path d="M3707 969 c-22 -25 -21 -28 2 -22 21 5 35 29 22 37 -4 3 -15 -4 -24 -15z"/>
<path d="M3750 956 c0 -8 -6 -17 -12 -19 -7 -3 -3 -6 8 -6 21 -1 39 21 27 33 -11 11 -23 6 -23 -8z"/>
<path d="M7220 940 c0 -7 3 -10 7 -7 3 4 3 10 0 14 -4 3 -7 0 -7 -7z"/>
<path d="M7181 894 c0 -11 3 -14 6 -6 3 7 2 16 -1 19 -3 4 -6 -2 -5 -13z"/>
<path d="M3753 840 c2 -8 1 -24 -4 -35 -6 -17 -8 -17 -8 -2 -1 11 -9 17 -23 16 -17 -1 -19 -2 -5 -6 9 -2 17 -11 17 -19 0 -8 2 -14 4 -14 2 0 11 -3 20 -6 12 -5 16 0 16 22 0 16 -5 36 -11 44 -10 13 -10 13 -6 0z"/>
<path d="M7218 833 c7 -3 16 -2 19 1 4 3 -2 6 -13 5 -11 0 -14 -3 -6 -6z"/>
<path d="M3920 816 c0 -2 9 -6 20 -9 11 -3 20 -1 20 4 0 5 -9 9 -20 9 -11 0 -20 -2 -20 -4z"/>
<path d="M3686 785 c4 -8 13 -15 21 -15 12 0 12 2 -1 15 -8 8 -17 15 -20 15 -3 0 -3 -7 0 -15z"/>
<path d="M7220 790 c0 -5 7 -10 15 -10 8 0 15 5 15 10 0 6 -7 10 -15 10 -8 0 -15 -4 -15 -10z"/>
<path d="M7261 774 c0 -11 3 -14 6 -6 3 7 2 16 -1 19 -3 4 -6 -2 -5 -13z"/>
<path d="M1921 764 c0 -11 3 -14 6 -6 3 7 2 16 -1 19 -3 4 -6 -2 -5 -13z"/>
<path d="M3655 750 c3 -5 10 -10 16 -10 5 0 9 5 9 10 0 6 -7 10 -16 10 -8 0 -12 -4 -9 -10z"/>
<path d="M3833 753 c-16 -3 -23 -11 -23 -29 0 -13 5 -24 10 -24 6 0 10 -7 10 -15 0 -16 25 -21 34 -6 3 5 26 5 52 0 26 -5 50 -7 52 -4 3 3 -2 5 -11 5 -11 0 -17 8 -17 25 0 16 6 25 15 25 23 0 18 17 -7 24 -25 6 -80 6 -115 -1z"/>
<path d="M4040 702 c0 -5 7 -9 15 -9 8 0 12 4 9 9 -3 4 -9 8 -15 8 -5 0 -9 -4 -9 -8z"/>
<path d="M4005 636 c31 -14 45 -12 45 5 0 5 -17 9 -37 9 l-38 -1 30 -13z"/>
<path d="M1470 629 c0 -5 5 -7 10 -4 6 3 10 8 10 11 0 2 -4 4 -10 4 -5 0 -10 -5 -10 -11z"/>
<path d="M1500 625 c0 -9 7 -18 15 -21 8 -4 13 -10 10 -14 -3 -5 6 -5 20 -2 13 4 25 10 25 15 1 35 -1 37 -35 37 -25 0 -35 -4 -35 -15z m47 -17 c-3 -8 -6 -5 -6 6 -1 11 2 17 5 13 3 -3 4 -12 1 -19z"/>
<path d="M7268 633 c7 -3 16 -2 19 1 4 3 -2 6 -13 5 -11 0 -14 -3 -6 -6z"/>
<path d="M7220 620 c0 -5 5 -10 10 -10 6 0 10 5 10 10 0 6 -4 10 -10 10 -5 0 -10 -4 -10 -10z"/>
<path d="M6980 576 c0 -2 11 -6 25 -8 14 -3 25 -1 25 3 0 5 -11 9 -25 9 -14 0 -25 -2 -25 -4z"/>
<path d="M1594 554 c3 -9 6 -22 6 -30 0 -8 8 -14 18 -14 35 0 13 59 -22 60 -4 0 -5 -7 -2 -16z"/>
<path d="M1490 540 c0 -5 5 -10 11 -10 5 0 7 5 4 10 -3 6 -8 10 -11 10 -2 0 -4 -4 -4 -10z"/>
<path d="M4521 524 c0 -11 3 -14 6 -6 3 7 2 16 -1 19 -3 4 -6 -2 -5 -13z"/>
<path d="M7260 511 c0 -16 25 -19 38 -5 11 12 8 14 -13 14 -14 0 -25 -4 -25 -9z"/>
<path d="M1501 503 c0 -6 3 -23 9 -37 8 -21 16 -26 42 -24 l33 1 -32 4 c-35 5 -47 33 -14 33 10 0 21 7 25 15 3 8 1 15 -4 15 -6 0 -10 -4 -10 -9 0 -17 -39 -19 -43 -2 -3 9 -5 11 -6 4z"/>
<path d="M2393 493 c339 -2 895 -2 1235 0 339 1 61 2 -618 2 -679 0 -957 -1 -617 -2z"/>
<path d="M5353 493 c302 -2 792 -2 1090 0 298 1 52 2 -548 2 -599 0 -843 -1 -542 -2z"/>
<path d="M7000 4820 c0 -7 3 -10 7 -7 3 4 3 10 0 14 -4 3 -7 0 -7 -7z"/>
<path d="M20 4810 c0 -7 3 -10 7 -7 3 4 3 10 0 14 -4 3 -7 0 -7 -7z"/>
<path d="M7050 4590 c0 -7 3 -10 7 -7 3 4 3 10 0 14 -4 3 -7 0 -7 -7z"/>
<path d="M7080 4460 c0 -7 3 -10 7 -7 3 4 3 10 0 14 -4 3 -7 0 -7 -7z"/>
<path d="M110 4400 c0 -7 3 -10 7 -7 3 4 3 10 0 14 -4 3 -7 0 -7 -7z"/>
<path d="M7100 4370 c0 -7 3 -10 7 -7 3 4 3 10 0 14 -4 3 -7 0 -7 -7z"/>
<path d="M7120 4280 c0 -7 3 -10 7 -7 3 4 3 10 0 14 -4 3 -7 0 -7 -7z"/>
<path d="M7130 4230 c0 -7 3 -10 7 -7 3 4 3 10 0 14 -4 3 -7 0 -7 -7z"/>
<path d="M7140 4190 c0 -7 3 -10 7 -7 3 4 3 10 0 14 -4 3 -7 0 -7 -7z"/>
<path d="M160 4180 c0 -7 3 -10 7 -7 3 4 3 10 0 14 -4 3 -7 0 -7 -7z"/>
<path d="M7160 4100 c0 -7 3 -10 7 -7 3 4 3 10 0 14 -4 3 -7 0 -7 -7z"/>
<path d="M7180 4010 c0 -7 3 -10 7 -7 3 4 3 10 0 14 -4 3 -7 0 -7 -7z"/>
<path d="M200 4000 c0 -7 3 -10 7 -7 3 4 3 10 0 14 -4 3 -7 0 -7 -7z"/>
<path d="M7200 3920 c0 -7 3 -10 7 -7 3 4 3 10 0 14 -4 3 -7 0 -7 -7z"/>
<path d="M7220 3830 c0 -7 3 -10 7 -7 3 4 3 10 0 14 -4 3 -7 0 -7 -7z"/>
<path d="M7240 3740 c0 -7 3 -10 7 -7 3 4 3 10 0 14 -4 3 -7 0 -7 -7z"/>
<path d="M7250 3690 c0 -7 3 -10 7 -7 3 4 3 10 0 14 -4 3 -7 0 -7 -7z"/>
<path d="M7280 3560 c0 -7 3 -10 7 -7 3 4 3 10 0 14 -4 3 -7 0 -7 -7z"/>
<path d="M7290 3510 c0 -7 3 -10 7 -7 3 4 3 10 0 14 -4 3 -7 0 -7 -7z"/>
<path d="M310 3500 c0 -7 3 -10 7 -7 3 4 3 10 0 14 -4 3 -7 0 -7 -7z"/>
<path d="M7321 3384 c0 -11 3 -14 6 -6 3 7 2 16 -1 19 -3 4 -6 -2 -5 -13z"/>
<path d="M340 3370 c0 -7 3 -10 7 -7 3 4 3 10 0 14 -4 3 -7 0 -7 -7z"/>
<path d="M7331 3334 c0 -11 3 -14 6 -6 3 7 2 16 -1 19 -3 4 -6 -2 -5 -13z"/>
<path d="M7340 3290 c0 -7 3 -10 7 -7 3 4 3 10 0 14 -4 3 -7 0 -7 -7z"/>
<path d="M7360 3200 c0 -7 3 -10 7 -7 3 4 3 10 0 14 -4 3 -7 0 -7 -7z"/>
<path d="M7370 3150 c0 -7 3 -10 7 -7 3 4 3 10 0 14 -4 3 -7 0 -7 -7z"/>
<path d="M7380 3110 c0 -7 3 -10 7 -7 3 4 3 10 0 14 -4 3 -7 0 -7 -7z"/>
<path d="M7400 3020 c0 -7 3 -10 7 -7 3 4 3 10 0 14 -4 3 -7 0 -7 -7z"/>
<path d="M7410 2970 c0 -7 3 -10 7 -7 3 4 3 10 0 14 -4 3 -7 0 -7 -7z"/>
<path d="M430 2960 c0 -7 3 -10 7 -7 3 4 3 10 0 14 -4 3 -7 0 -7 -7z"/>
<path d="M7420 2930 c0 -7 3 -10 7 -7 3 4 3 10 0 14 -4 3 -7 0 -7 -7z"/>
<path d="M7440 2840 c0 -7 3 -10 7 -7 3 4 3 10 0 14 -4 3 -7 0 -7 -7z"/>
<path d="M7451 2794 c0 -11 3 -14 6 -6 3 7 2 16 -1 19 -3 4 -6 -2 -5 -13z"/>
<path d="M7461 2754 c0 -11 3 -14 6 -6 3 7 2 16 -1 19 -3 4 -6 -2 -5 -13z"/>
<path d="M7480 2660 c0 -7 3 -10 7 -7 3 4 3 10 0 14 -4 3 -7 0 -7 -7z"/>
<path d="M7490 2610 c0 -7 3 -10 7 -7 3 4 3 10 0 14 -4 3 -7 0 -7 -7z"/>
<path d="M7500 2570 c0 -7 3 -10 7 -7 3 4 3 10 0 14 -4 3 -7 0 -7 -7z"/>
<path d="M7520 2480 c0 -7 3 -10 7 -7 3 4 3 10 0 14 -4 3 -7 0 -7 -7z"/>
<path d="M7540 2390 c0 -7 3 -10 7 -7 3 4 3 10 0 14 -4 3 -7 0 -7 -7z"/>
<path d="M560 2380 c0 -7 3 -10 7 -7 3 4 3 10 0 14 -4 3 -7 0 -7 -7z"/>
<path d="M7560 2300 c0 -7 3 -10 7 -7 3 4 3 10 0 14 -4 3 -7 0 -7 -7z"/>
<path d="M580 2290 c0 -7 3 -10 7 -7 3 4 3 10 0 14 -4 3 -7 0 -7 -7z"/>
<path d="M590 2240 c0 -7 3 -10 7 -7 3 4 3 10 0 14 -4 3 -7 0 -7 -7z"/>
<path d="M7620 2030 c0 -7 3 -10 7 -7 3 4 3 10 0 14 -4 3 -7 0 -7 -7z"/>
<path d="M7630 1990 c0 -7 3 -10 7 -7 3 4 3 10 0 14 -4 3 -7 0 -7 -7z"/>
<path d="M660 1930 c0 -7 3 -10 7 -7 3 4 3 10 0 14 -4 3 -7 0 -7 -7z"/>
<path d="M7680 1760 c0 -7 3 -10 7 -7 3 4 3 10 0 14 -4 3 -7 0 -7 -7z"/>
<path d="M7690 1710 c0 -7 3 -10 7 -7 3 4 3 10 0 14 -4 3 -7 0 -7 -7z"/>
<path d="M7700 1670 c0 -7 3 -10 7 -7 3 4 3 10 0 14 -4 3 -7 0 -7 -7z"/>
<path d="M7720 1580 c0 -7 3 -10 7 -7 3 4 3 10 0 14 -4 3 -7 0 -7 -7z"/>
<path d="M7740 1490 c0 -7 3 -10 7 -7 3 4 3 10 0 14 -4 3 -7 0 -7 -7z"/>
<path d="M7760 1400 c0 -7 3 -10 7 -7 3 4 3 10 0 14 -4 3 -7 0 -7 -7z"/>
<path d="M7771 1354 c0 -11 3 -14 6 -6 3 7 2 16 -1 19 -3 4 -6 -2 -5 -13z"/>
<path d="M7781 1314 c0 -11 3 -14 6 -6 3 7 2 16 -1 19 -3 4 -6 -2 -5 -13z"/>
<path d="M7820 1130 c0 -7 3 -10 7 -7 3 4 3 10 0 14 -4 3 -7 0 -7 -7z"/>
<path d="M7830 1090 c0 -7 3 -10 7 -7 3 4 3 10 0 14 -4 3 -7 0 -7 -7z"/>
<path d="M7900 770 c0 -7 3 -10 7 -7 3 4 3 10 0 14 -4 3 -7 0 -7 -7z"/>
<path d="M7910 730 c0 -7 3 -10 7 -7 3 4 3 10 0 14 -4 3 -7 0 -7 -7z"/>
<path d="M7931 634 c0 -11 3 -14 6 -6 3 7 2 16 -1 19 -3 4 -6 -2 -5 -13z"/>
<path d="M7940 590 c0 -7 3 -10 7 -7 3 4 3 10 0 14 -4 3 -7 0 -7 -7z"/>
<path d="M7950 550 c0 -7 3 -10 7 -7 3 4 3 10 0 14 -4 3 -7 0 -7 -7z"/>
<path d="M7961 504 c0 -11 3 -14 6 -6 3 7 2 16 -1 19 -3 4 -6 -2 -5 -13z"/>
<path d="M7980 410 c0 -7 3 -10 7 -7 3 4 3 10 0 14 -4 3 -7 0 -7 -7z"/>
<path d="M7990 370 c0 -7 3 -10 7 -7 3 4 3 10 0 14 -4 3 -7 0 -7 -7z"/>
<path d="M8000 320 c0 -7 3 -10 7 -7 3 4 3 10 0 14 -4 3 -7 0 -7 -7z"/>
<path d="M8020 223 c0 -13 5 -23 10 -23 13 0 13 11 0 30 -8 12 -10 11 -10 -7z"/>
<path d="M1060 130 c0 -7 3 -10 7 -7 3 4 3 10 0 14 -4 3 -7 0 -7 -7z"/>
<path d="M7914 8 c-4 -7 -3 -8 4 -4 12 7 16 16 8 16 -3 0 -8 -5 -12 -12z"/>
</g>
<g id="layer120" fill="#a3cae5" stroke="none">
</g>
<g id="layer121" fill="#cdcfd0" stroke="none">
<path d="M106 5084 c-5 -14 -4 -15 9 -4 17 14 19 20 6 20 -5 0 -12 -7 -15 -16z"/>
<path d="M6962 5010 c0 -14 2 -19 5 -12 2 6 2 18 0 25 -3 6 -5 1 -5 -13z"/>
<path d="M6980 4910 c0 -7 3 -10 7 -7 3 4 3 10 0 14 -4 3 -7 0 -7 -7z"/>
<path d="M5 4860 c3 -5 8 -10 11 -10 3 0 2 5 -1 10 -3 6 -8 10 -11 10 -3 0 -2 -4 1 -10z"/>
<path d="M7010 4780 c0 -7 3 -10 7 -7 3 4 3 10 0 14 -4 3 -7 0 -7 -7z"/>
<path d="M7020 4730 c0 -7 3 -10 7 -7 3 4 3 10 0 14 -4 3 -7 0 -7 -7z"/>
<path d="M7040 4640 c0 -7 3 -10 7 -7 3 4 3 10 0 14 -4 3 -7 0 -7 -7z"/>
<path d="M7060 4550 c0 -7 3 -10 7 -7 3 4 3 10 0 14 -4 3 -7 0 -7 -7z"/>
<path d="M7070 4510 c0 -7 3 -10 7 -7 3 4 3 10 0 14 -4 3 -7 0 -7 -7z"/>
<path d="M7170 4060 c0 -7 3 -10 7 -7 3 4 3 10 0 14 -4 3 -7 0 -7 -7z"/>
<path d="M240 3820 c0 -7 3 -10 7 -7 3 4 3 10 0 14 -4 3 -7 0 -7 -7z"/>
<path d="M7260 3650 c0 -7 3 -10 7 -7 3 4 3 10 0 14 -4 3 -7 0 -7 -7z"/>
<path d="M7300 3470 c0 -7 3 -10 7 -7 3 4 3 10 0 14 -4 3 -7 0 -7 -7z"/>
<path d="M7310 3430 c0 -7 3 -10 7 -7 3 4 3 10 0 14 -4 3 -7 0 -7 -7z"/>
<path d="M7320 3390 c0 -7 3 -10 7 -7 3 4 3 10 0 14 -4 3 -7 0 -7 -7z"/>
<path d="M7330 3340 c0 -7 3 -10 7 -7 3 4 3 10 0 14 -4 3 -7 0 -7 -7z"/>
<path d="M7390 3070 c0 -7 3 -10 7 -7 3 4 3 10 0 14 -4 3 -7 0 -7 -7z"/>
<path d="M7450 2800 c0 -7 3 -10 7 -7 3 4 3 10 0 14 -4 3 -7 0 -7 -7z"/>
<path d="M7460 2760 c0 -7 3 -10 7 -7 3 4 3 10 0 14 -4 3 -7 0 -7 -7z"/>
<path d="M480 2740 c0 -7 3 -10 7 -7 3 4 3 10 0 14 -4 3 -7 0 -7 -7z"/>
<path d="M7510 2530 c0 -7 3 -10 7 -7 3 4 3 10 0 14 -4 3 -7 0 -7 -7z"/>
<path d="M7580 2210 c0 -7 3 -10 7 -7 3 4 3 10 0 14 -4 3 -7 0 -7 -7z"/>
<path d="M7590 2170 c0 -7 3 -10 7 -7 3 4 3 10 0 14 -4 3 -7 0 -7 -7z"/>
<path d="M640 2020 c0 -7 3 -10 7 -7 3 4 3 10 0 14 -4 3 -7 0 -7 -7z"/>
<path d="M7640 1950 c0 -7 3 -10 7 -7 3 4 3 10 0 14 -4 3 -7 0 -7 -7z"/>
<path d="M7660 1850 c0 -7 3 -10 7 -7 3 4 3 10 0 14 -4 3 -7 0 -7 -7z"/>
<path d="M7710 1630 c0 -7 3 -10 7 -7 3 4 3 10 0 14 -4 3 -7 0 -7 -7z"/>
<path d="M7730 1540 c0 -7 3 -10 7 -7 3 4 3 10 0 14 -4 3 -7 0 -7 -7z"/>
<path d="M7770 1360 c0 -7 3 -10 7 -7 3 4 3 10 0 14 -4 3 -7 0 -7 -7z"/>
<path d="M7780 1320 c0 -7 3 -10 7 -7 3 4 3 10 0 14 -4 3 -7 0 -7 -7z"/>
<path d="M7790 1270 c0 -7 3 -10 7 -7 3 4 3 10 0 14 -4 3 -7 0 -7 -7z"/>
<path d="M7810 1180 c0 -7 3 -10 7 -7 3 4 3 10 0 14 -4 3 -7 0 -7 -7z"/>
<path d="M7860 950 c0 -7 3 -10 7 -7 3 4 3 10 0 14 -4 3 -7 0 -7 -7z"/>
<path d="M7890 820 c0 -7 3 -10 7 -7 3 4 3 10 0 14 -4 3 -7 0 -7 -7z"/>
<path d="M7930 640 c0 -7 3 -10 7 -7 3 4 3 10 0 14 -4 3 -7 0 -7 -7z"/>
<path d="M960 580 c0 -7 3 -10 7 -7 3 4 3 10 0 14 -4 3 -7 0 -7 -7z"/>
<path d="M7960 510 c0 -7 3 -10 7 -7 3 4 3 10 0 14 -4 3 -7 0 -7 -7z"/>
<path d="M7970 460 c0 -7 3 -10 7 -7 3 4 3 10 0 14 -4 3 -7 0 -7 -7z"/>
<path d="M8020 228 c0 -9 5 -20 10 -23 13 -8 13 5 0 25 -8 13 -10 13 -10 -2z"/>
<path d="M8023 163 c4 -3 10 -3 14 0 3 4 0 7 -7 7 -7 0 -10 -3 -7 -7z"/>
</g>
<g id="layer122" fill="#e3e2de" stroke="none">
<path d="M6960 5020 c0 -7 3 -10 7 -7 3 4 3 10 0 14 -4 3 -7 0 -7 -7z"/>
<path d="M635 4363 l22 -98 136 -3 c100 -2 138 -6 147 -16 6 -8 26 -81 45 -163 18 -81 63 -274 99 -428 165 -708 216 -929 216 -933 0 -14 25 3 560 388 323 233 503 361 593 426 40 28 243 174 452 324 209 151 416 299 460 330 142 100 240 173 255 190 18 21 66 34 75 20 3 -5 15 -10 25 -10 23 0 40 -28 40 -67 0 -15 27 -140 60 -278 33 -137 80 -333 105 -435 24 -102 72 -300 105 -440 34 -140 70 -293 82 -340 11 -47 23 -88 27 -93 4 -4 608 -6 1342 -5 l1336 3 -39 165 c-53 227 -85 365 -218 920 -33 140 -79 336 -102 435 -23 99 -46 186 -51 193 -8 9 -600 12 -2901 12 l-2892 0 21 -97z"/>
<path d="M320 3460 c0 -7 3 -10 7 -7 3 4 3 10 0 14 -4 3 -7 0 -7 -7z"/>
</g>
<g id="layer123" fill="#dae1e9" stroke="none">
<path d="M155 4848 c3 -13 237 -1069 521 -2348 284 -1279 520 -2335 525 -2347 l9 -23 3295 0 c2812 0 3295 2 3295 14 0 8 -79 369 -176 802 -96 434 -182 818 -189 854 -15 67 -268 1204 -304 1365 -11 50 -77 347 -147 660 -109 496 -158 715 -205 920 -6 28 -15 67 -20 88 l-10 37 -3300 0 -3299 0 5 -22z m6433 -192 c8 -7 20 -38 27 -67 41 -174 209 -883 275 -1164 43 -181 94 -400 114 -485 21 -85 41 -159 47 -164 5 -6 9 -16 9 -22 0 -21 -50 -74 -70 -74 -11 0 -20 -10 -23 -27 -3 -16 -15 -34 -26 -40 -16 -10 -331 -13 -1453 -13 l-1433 -1 -22 26 c-13 14 -23 35 -23 46 0 18 -49 233 -124 539 -34 140 -143 595 -208 865 -17 72 -34 134 -39 139 -7 8 -59 -27 -709 -494 -179 -128 -521 -374 -760 -545 -239 -172 -536 -385 -660 -474 -143 -102 -234 -161 -249 -161 -32 0 -71 37 -71 66 0 12 -14 80 -31 151 -16 70 -44 187 -60 258 -17 72 -46 195 -65 275 -34 148 -59 256 -134 575 -23 99 -47 198 -53 220 l-12 40 -110 2 c-60 1 -118 2 -127 3 -24 0 -68 50 -68 76 0 33 -51 278 -61 290 -5 6 -4 26 2 46 7 27 17 39 39 46 16 6 36 24 45 42 9 17 25 34 35 38 10 4 1361 6 3001 5 2551 -2 2985 -5 2997 -17z m-4886 -2322 c161 -86 370 -197 463 -247 94 -49 262 -139 375 -199 355 -191 486 -261 820 -438 179 -95 381 -203 450 -240 69 -37 217 -117 330 -177 113 -61 227 -122 253 -138 l48 -27 -5 28 c-13 72 -319 1341 -327 1356 -13 25 16 86 45 94 15 3 26 14 28 26 2 12 14 29 28 39 24 18 81 19 1444 19 781 0 1422 -3 1425 -8 3 -5 13 -11 23 -15 9 -3 19 -21 23 -39 4 -18 33 -148 66 -288 32 -140 126 -547 209 -905 82 -357 154 -658 160 -667 15 -26 12 -58 -5 -64 -8 -4 -15 -13 -15 -21 0 -8 -8 -17 -18 -20 -10 -2 -24 -18 -31 -34 -7 -16 -20 -36 -28 -44 -13 -13 -382 -15 -3020 -15 l-3005 0 -29 31 c-16 17 -27 35 -24 39 3 5 -9 73 -26 152 -47 215 -47 198 -9 229 18 15 38 25 45 23 9 -4 11 3 8 20 -8 41 33 60 117 53 38 -3 72 -2 75 3 4 7 -139 645 -225 1005 -10 44 -35 152 -55 240 -20 88 -40 175 -46 193 -14 43 4 102 32 102 11 0 25 13 35 33 24 46 34 57 55 57 10 0 150 -70 311 -156z"/>
<path d="M618 4453 c6 -2 10 -8 7 -13 -2 -4 4 -45 14 -91 l18 -84 135 -3 c101 -2 139 -6 148 -16 6 -8 26 -81 45 -163 18 -81 63 -274 99 -428 165 -708 216 -929 216 -933 0 -14 25 3 560 388 323 233 503 361 593 426 40 28 243 174 452 324 209 151 416 299 460 330 142 100 240 173 255 190 18 21 66 34 75 20 3 -5 15 -10 25 -10 23 0 40 -28 40 -67 0 -15 27 -140 60 -278 33 -137 80 -333 105 -435 24 -102 72 -300 105 -440 34 -140 70 -293 82 -340 11 -47 23 -88 27 -93 4 -4 608 -6 1342 -5 l1336 3 -39 165 c-53 227 -85 365 -218 920 -33 140 -79 336 -102 435 -23 99 -46 186 -51 193 -8 9 -600 12 -2906 11 -1593 0 -2890 -3 -2883 -6z"/>
</g>
<g id="layer124" fill="#f6f6f6" stroke="none">
<path d="M155 4848 c3 -13 237 -1069 521 -2348 284 -1279 520 -2335 525 -2347 l9 -23 3295 0 c2812 0 3295 2 3295 14 0 8 -79 369 -176 802 -96 434 -182 818 -189 854 -15 67 -268 1204 -304 1365 -11 50 -77 347 -147 660 -109 496 -158 715 -205 920 -6 28 -15 67 -20 88 l-10 37 -3300 0 -3299 0 5 -22z m6433 -192 c8 -7 20 -38 27 -67 41 -174 209 -883 275 -1164 43 -181 94 -400 114 -485 21 -85 41 -159 47 -164 5 -6 9 -16 9 -22 0 -21 -50 -74 -70 -74 -11 0 -20 -10 -23 -27 -3 -16 -15 -34 -26 -40 -16 -10 -331 -13 -1453 -13 -1379 0 -1433 0 -1451 18 -10 11 -26 55 -37 108 -10 49 -46 202 -79 339 -34 138 -71 293 -83 345 -11 52 -25 97 -29 98 -5 2 -7 8 -4 12 3 5 -10 71 -29 147 -18 76 -55 228 -81 338 -26 110 -51 204 -55 209 -7 7 -464 -310 -505 -350 -7 -8 -16 -14 -19 -14 -4 0 -154 -107 -631 -450 -71 -51 -131 -97 -133 -102 -2 -4 -8 -8 -13 -8 -11 0 -400 -277 -415 -296 -6 -8 -14 -14 -18 -14 -12 0 -126 -83 -126 -92 0 -4 -5 -8 -10 -8 -13 0 -194 -128 -198 -141 -2 -5 -8 -9 -13 -9 -5 0 -69 -43 -142 -95 -80 -58 -141 -95 -156 -95 -32 0 -71 37 -71 66 0 12 -14 80 -31 151 -16 70 -44 187 -60 258 -17 72 -46 195 -65 275 -34 148 -59 256 -134 575 -23 99 -47 198 -53 220 l-12 40 -110 2 c-60 1 -118 2 -127 3 -24 0 -68 50 -68 76 0 33 -51 278 -61 290 -5 6 -4 26 2 46 7 27 17 39 39 46 16 6 36 24 45 42 9 17 25 34 35 38 10 4 1361 6 3001 5 2551 -2 2985 -5 2997 -17z m-4886 -2322 c161 -86 370 -197 463 -247 94 -49 262 -139 375 -199 355 -191 486 -261 820 -438 179 -95 381 -203 450 -240 69 -37 217 -117 330 -177 113 -61 227 -122 253 -138 l48 -27 -5 28 c-13 72 -319 1341 -327 1356 -13 25 16 86 45 94 15 3 26 14 28 26 2 12 14 29 28 39 24 18 81 19 1444 19 781 0 1422 -3 1425 -8 3 -5 13 -11 23 -15 9 -3 19 -21 23 -39 4 -18 33 -148 66 -288 32 -140 126 -547 209 -905 82 -357 154 -658 160 -667 15 -26 12 -58 -5 -64 -8 -4 -15 -13 -15 -21 0 -8 -8 -17 -18 -20 -10 -2 -24 -18 -31 -34 -7 -16 -20 -36 -28 -44 -13 -13 -382 -15 -3020 -15 l-3005 0 -29 31 c-16 17 -27 35 -24 39 3 5 -9 73 -26 152 -47 215 -47 198 -9 229 18 15 38 25 45 23 9 -4 11 3 8 20 -8 41 33 60 117 53 38 -3 72 -2 75 3 4 7 -139 645 -225 1005 -10 44 -35 152 -55 240 -20 88 -40 175 -46 193 -14 43 4 102 32 102 11 0 25 13 35 33 24 46 34 57 55 57 10 0 150 -70 311 -156z"/>
<path d="M3683 4443 c4 -3 10 -3 14 0 3 4 0 7 -7 7 -7 0 -10 -3 -7 -7z"/>
</g>


</svg>